G04 #@! TF.GenerationSoftware,KiCad,Pcbnew,(5.1.10-1-10_14)*
G04 #@! TF.CreationDate,2021-12-29T22:31:36+09:00*
G04 #@! TF.ProjectId,9674GL,39363734-474c-42e6-9b69-6361645f7063,rev?*
G04 #@! TF.SameCoordinates,Original*
G04 #@! TF.FileFunction,Copper,L2,Bot*
G04 #@! TF.FilePolarity,Positive*
%FSLAX46Y46*%
G04 Gerber Fmt 4.6, Leading zero omitted, Abs format (unit mm)*
G04 Created by KiCad (PCBNEW (5.1.10-1-10_14)) date 2021-12-29 22:31:36*
%MOMM*%
%LPD*%
G01*
G04 APERTURE LIST*
G04 #@! TA.AperFunction,ComponentPad*
%ADD10C,1.397000*%
G04 #@! TD*
G04 #@! TA.AperFunction,ComponentPad*
%ADD11R,1.397000X1.397000*%
G04 #@! TD*
G04 #@! TA.AperFunction,SMDPad,CuDef*
%ADD12R,0.950000X1.300000*%
G04 #@! TD*
G04 #@! TA.AperFunction,SMDPad,CuDef*
%ADD13R,3.300000X3.000000*%
G04 #@! TD*
G04 #@! TA.AperFunction,SMDPad,CuDef*
%ADD14R,3.300000X2.800000*%
G04 #@! TD*
G04 #@! TA.AperFunction,ComponentPad*
%ADD15O,1.500000X1.500000*%
G04 #@! TD*
G04 #@! TA.AperFunction,ComponentPad*
%ADD16C,1.524000*%
G04 #@! TD*
G04 #@! TA.AperFunction,ComponentPad*
%ADD17C,2.000000*%
G04 #@! TD*
G04 #@! TA.AperFunction,ViaPad*
%ADD18C,0.800000*%
G04 #@! TD*
G04 #@! TA.AperFunction,Conductor*
%ADD19C,0.500000*%
G04 #@! TD*
G04 #@! TA.AperFunction,Conductor*
%ADD20C,0.900000*%
G04 #@! TD*
G04 #@! TA.AperFunction,Conductor*
%ADD21C,0.250000*%
G04 #@! TD*
G04 APERTURE END LIST*
D10*
X64293750Y-105727500D03*
D11*
X64293750Y-113347500D03*
D12*
X64293750Y-111312500D03*
X64293750Y-107762500D03*
D10*
X37306250Y-29527500D03*
D11*
X37306250Y-37147500D03*
D12*
X37306250Y-35112500D03*
X37306250Y-31562500D03*
D10*
X322262500Y-105727500D03*
D11*
X322262500Y-113347500D03*
D12*
X322262500Y-111312500D03*
X322262500Y-107762500D03*
D10*
X322262500Y-86677500D03*
D11*
X322262500Y-94297500D03*
D12*
X322262500Y-92262500D03*
X322262500Y-88712500D03*
D10*
X322262500Y-67627500D03*
D11*
X322262500Y-75247500D03*
D12*
X322262500Y-73212500D03*
X322262500Y-69662500D03*
D10*
X322262500Y-48577500D03*
D11*
X322262500Y-56197500D03*
D12*
X322262500Y-54162500D03*
X322262500Y-50612500D03*
D10*
X283368750Y-31115000D03*
D11*
X283368750Y-38735000D03*
D12*
X283368750Y-36700000D03*
X283368750Y-33150000D03*
D10*
X304006250Y-105727500D03*
D11*
X304006250Y-113347500D03*
D12*
X304006250Y-111312500D03*
X304006250Y-107762500D03*
D10*
X304006250Y-86677500D03*
D11*
X304006250Y-94297500D03*
D12*
X304006250Y-92262500D03*
X304006250Y-88712500D03*
D10*
X304006250Y-67627500D03*
D11*
X304006250Y-75247500D03*
D12*
X304006250Y-73212500D03*
X304006250Y-69662500D03*
D10*
X304006250Y-48577500D03*
D11*
X304006250Y-56197500D03*
D12*
X304006250Y-54162500D03*
X304006250Y-50612500D03*
D10*
X286543750Y-29527500D03*
D11*
X286543750Y-37147500D03*
D12*
X286543750Y-35112500D03*
X286543750Y-31562500D03*
D10*
X284956250Y-105727500D03*
D11*
X284956250Y-113347500D03*
D12*
X284956250Y-111312500D03*
X284956250Y-107762500D03*
D10*
X284956250Y-86677500D03*
D11*
X284956250Y-94297500D03*
D12*
X284956250Y-92262500D03*
X284956250Y-88712500D03*
D10*
X284956250Y-67627500D03*
D11*
X284956250Y-75247500D03*
D12*
X284956250Y-73212500D03*
X284956250Y-69662500D03*
D10*
X284956250Y-48577500D03*
D11*
X284956250Y-56197500D03*
D12*
X284956250Y-54162500D03*
X284956250Y-50612500D03*
D10*
X268287500Y-28733750D03*
D11*
X268287500Y-36353750D03*
D12*
X268287500Y-34318750D03*
X268287500Y-30768750D03*
D10*
X265906250Y-105727500D03*
D11*
X265906250Y-113347500D03*
D12*
X265906250Y-111312500D03*
X265906250Y-107762500D03*
D10*
X265906250Y-86677500D03*
D11*
X265906250Y-94297500D03*
D12*
X265906250Y-92262500D03*
X265906250Y-88712500D03*
D10*
X265906250Y-67627500D03*
D11*
X265906250Y-75247500D03*
D12*
X265906250Y-73212500D03*
X265906250Y-69662500D03*
D10*
X263525000Y-48577500D03*
D11*
X263525000Y-56197500D03*
D12*
X263525000Y-54162500D03*
X263525000Y-50612500D03*
D10*
X265112500Y-28921250D03*
D11*
X265112500Y-36541250D03*
D12*
X265112500Y-34506250D03*
X265112500Y-30956250D03*
D10*
X246856250Y-105727500D03*
D11*
X246856250Y-113347500D03*
D12*
X246856250Y-111312500D03*
X246856250Y-107762500D03*
D10*
X246856250Y-86677500D03*
D11*
X246856250Y-94297500D03*
D12*
X246856250Y-92262500D03*
X246856250Y-88712500D03*
D10*
X242093750Y-67627500D03*
D11*
X242093750Y-75247500D03*
D12*
X242093750Y-73212500D03*
X242093750Y-69662500D03*
D10*
X237331250Y-48577500D03*
D11*
X237331250Y-56197500D03*
D12*
X237331250Y-54162500D03*
X237331250Y-50612500D03*
D10*
X246856250Y-29527500D03*
D11*
X246856250Y-37147500D03*
D12*
X246856250Y-35112500D03*
X246856250Y-31562500D03*
D10*
X226218750Y-105727500D03*
D11*
X226218750Y-113347500D03*
D12*
X226218750Y-111312500D03*
X226218750Y-107762500D03*
D10*
X227806250Y-86677500D03*
D11*
X227806250Y-94297500D03*
D12*
X227806250Y-92262500D03*
X227806250Y-88712500D03*
D10*
X223043750Y-67627500D03*
D11*
X223043750Y-75247500D03*
D12*
X223043750Y-73212500D03*
X223043750Y-69662500D03*
D10*
X218281250Y-48577500D03*
D11*
X218281250Y-56197500D03*
D12*
X218281250Y-54162500D03*
X218281250Y-50612500D03*
D10*
X227806250Y-29527500D03*
D11*
X227806250Y-37147500D03*
D12*
X227806250Y-35112500D03*
X227806250Y-31562500D03*
D10*
X203993750Y-105727500D03*
D11*
X203993750Y-113347500D03*
D12*
X203993750Y-111312500D03*
X203993750Y-107762500D03*
D10*
X208756250Y-86677500D03*
D11*
X208756250Y-94297500D03*
D12*
X208756250Y-92262500D03*
X208756250Y-88712500D03*
D10*
X203993750Y-67627500D03*
D11*
X203993750Y-75247500D03*
D12*
X203993750Y-73212500D03*
X203993750Y-69662500D03*
D10*
X199231250Y-48577500D03*
D11*
X199231250Y-56197500D03*
D12*
X199231250Y-54162500D03*
X199231250Y-50612500D03*
D10*
X208756250Y-29527500D03*
D11*
X208756250Y-37147500D03*
D12*
X208756250Y-35112500D03*
X208756250Y-31562500D03*
D10*
X189706250Y-86677500D03*
D11*
X189706250Y-94297500D03*
D12*
X189706250Y-92262500D03*
X189706250Y-88712500D03*
D10*
X184943750Y-67627500D03*
D11*
X184943750Y-75247500D03*
D12*
X184943750Y-73212500D03*
X184943750Y-69662500D03*
D10*
X180181250Y-48577500D03*
D11*
X180181250Y-56197500D03*
D12*
X180181250Y-54162500D03*
X180181250Y-50612500D03*
D10*
X189706250Y-29527500D03*
D11*
X189706250Y-37147500D03*
D12*
X189706250Y-35112500D03*
X189706250Y-31562500D03*
D10*
X183356250Y-104933750D03*
D11*
X183356250Y-112553750D03*
D12*
X183356250Y-110518750D03*
X183356250Y-106968750D03*
D10*
X169926000Y-83820000D03*
D11*
X169926000Y-91440000D03*
D12*
X169926000Y-89405000D03*
X169926000Y-85855000D03*
D10*
X165893750Y-67627500D03*
D11*
X165893750Y-75247500D03*
D12*
X165893750Y-73212500D03*
X165893750Y-69662500D03*
D10*
X161131250Y-48577500D03*
D11*
X161131250Y-56197500D03*
D12*
X161131250Y-54162500D03*
X161131250Y-50612500D03*
D10*
X170656250Y-29527500D03*
D11*
X170656250Y-37147500D03*
D12*
X170656250Y-35112500D03*
X170656250Y-31562500D03*
D10*
X150241000Y-83693000D03*
D11*
X150241000Y-91313000D03*
D12*
X150241000Y-89278000D03*
X150241000Y-85728000D03*
D10*
X146843750Y-67627500D03*
D11*
X146843750Y-75247500D03*
D12*
X146843750Y-73212500D03*
X146843750Y-69662500D03*
D10*
X142081250Y-48577500D03*
D11*
X142081250Y-56197500D03*
D12*
X142081250Y-54162500D03*
X142081250Y-50612500D03*
D10*
X151606250Y-29527500D03*
D11*
X151606250Y-37147500D03*
D12*
X151606250Y-35112500D03*
X151606250Y-31562500D03*
D10*
X132556250Y-29527500D03*
D11*
X132556250Y-37147500D03*
D12*
X132556250Y-35112500D03*
X132556250Y-31562500D03*
D10*
X145256250Y-104933750D03*
D11*
X145256250Y-112553750D03*
D12*
X145256250Y-110518750D03*
X145256250Y-106968750D03*
D10*
X131953000Y-83820000D03*
D11*
X131953000Y-91440000D03*
D12*
X131953000Y-89405000D03*
X131953000Y-85855000D03*
D10*
X127793750Y-67627500D03*
D11*
X127793750Y-75247500D03*
D12*
X127793750Y-73212500D03*
X127793750Y-69662500D03*
D10*
X123031250Y-48577500D03*
D11*
X123031250Y-56197500D03*
D12*
X123031250Y-54162500D03*
X123031250Y-50612500D03*
D10*
X113506250Y-29527500D03*
D11*
X113506250Y-37147500D03*
D12*
X113506250Y-35112500D03*
X113506250Y-31562500D03*
D10*
X108743750Y-105727500D03*
D11*
X108743750Y-113347500D03*
D12*
X108743750Y-111312500D03*
X108743750Y-107762500D03*
D10*
X113030000Y-83820000D03*
D11*
X113030000Y-91440000D03*
D12*
X113030000Y-89405000D03*
X113030000Y-85855000D03*
D10*
X108743750Y-67627500D03*
D11*
X108743750Y-75247500D03*
D12*
X108743750Y-73212500D03*
X108743750Y-69662500D03*
D10*
X103981250Y-48577500D03*
D11*
X103981250Y-56197500D03*
D12*
X103981250Y-54162500D03*
X103981250Y-50612500D03*
D10*
X94456250Y-29527500D03*
D11*
X94456250Y-37147500D03*
D12*
X94456250Y-35112500D03*
X94456250Y-31562500D03*
D10*
X88106250Y-105727500D03*
D11*
X88106250Y-113347500D03*
D12*
X88106250Y-111312500D03*
X88106250Y-107762500D03*
D10*
X94456250Y-86677500D03*
D11*
X94456250Y-94297500D03*
D12*
X94456250Y-92262500D03*
X94456250Y-88712500D03*
D10*
X89693750Y-67627500D03*
D11*
X89693750Y-75247500D03*
D12*
X89693750Y-73212500D03*
X89693750Y-69662500D03*
D10*
X84931250Y-48577500D03*
D11*
X84931250Y-56197500D03*
D12*
X84931250Y-54162500D03*
X84931250Y-50612500D03*
D10*
X75406250Y-29527500D03*
D11*
X75406250Y-37147500D03*
D12*
X75406250Y-35112500D03*
X75406250Y-31562500D03*
D10*
X75406250Y-86677500D03*
D11*
X75406250Y-94297500D03*
D12*
X75406250Y-92262500D03*
X75406250Y-88712500D03*
D10*
X70643750Y-67627500D03*
D11*
X70643750Y-75247500D03*
D12*
X70643750Y-73212500D03*
X70643750Y-69662500D03*
D10*
X65881250Y-48577500D03*
D11*
X65881250Y-56197500D03*
D12*
X65881250Y-54162500D03*
X65881250Y-50612500D03*
D10*
X56356250Y-29527500D03*
D11*
X56356250Y-37147500D03*
D12*
X56356250Y-35112500D03*
X56356250Y-31562500D03*
D10*
X40481250Y-105727500D03*
D11*
X40481250Y-113347500D03*
D12*
X40481250Y-111312500D03*
X40481250Y-107762500D03*
D10*
X55562500Y-86677500D03*
D11*
X55562500Y-94297500D03*
D12*
X55562500Y-92262500D03*
X55562500Y-88712500D03*
D10*
X47752000Y-64135000D03*
D11*
X47752000Y-71755000D03*
D12*
X47752000Y-69720000D03*
X47752000Y-66170000D03*
D10*
X44450000Y-48577500D03*
D11*
X44450000Y-56197500D03*
D12*
X44450000Y-54162500D03*
X44450000Y-50612500D03*
D13*
X168075000Y-80605000D03*
X154475000Y-83145000D03*
X60918750Y-99655000D03*
X47318750Y-102195000D03*
X28268750Y-64095000D03*
X41868750Y-61555000D03*
X301425000Y-42505000D03*
X287825000Y-45045000D03*
X44150000Y-80645000D03*
X30750000Y-83185000D03*
X172737500Y-99695000D03*
X159337500Y-102235000D03*
X134637500Y-99695000D03*
X121237500Y-102235000D03*
X287825000Y-25995000D03*
D14*
X301425000Y-23555000D03*
D13*
X306875000Y-25995000D03*
D14*
X320475000Y-23555000D03*
D15*
X173950000Y-19227000D03*
X171450000Y-19227000D03*
X168950000Y-19227000D03*
D13*
X320475000Y-80605000D03*
X306875000Y-83145000D03*
X282375000Y-23455000D03*
X268775000Y-25995000D03*
D16*
X290163250Y-20637500D03*
X290163250Y-35857500D03*
X292703250Y-35857500D03*
X295243250Y-35857500D03*
X297783250Y-35857500D03*
X300323250Y-35857500D03*
X302863250Y-35857500D03*
X305403250Y-35857500D03*
X307943250Y-35857500D03*
X310483250Y-35857500D03*
X313023250Y-35857500D03*
X315563250Y-35857500D03*
X318103250Y-35857500D03*
X320643250Y-35857500D03*
X320643250Y-20637500D03*
X318103250Y-20637500D03*
X315563250Y-20637500D03*
X313023250Y-20637500D03*
X310483250Y-20637500D03*
X307943250Y-20637500D03*
X305403250Y-20637500D03*
X302863250Y-20637500D03*
X300323250Y-20637500D03*
X297783250Y-20637500D03*
X295243250Y-20637500D03*
X292703250Y-20637500D03*
D13*
X84731250Y-99655000D03*
X71131250Y-102195000D03*
D17*
X244677000Y-39370000D03*
X238177000Y-39370000D03*
D13*
X320475000Y-99655000D03*
X306875000Y-102195000D03*
X320475000Y-61555000D03*
X306875000Y-64095000D03*
X320475000Y-42505000D03*
X306875000Y-45045000D03*
X301425000Y-99655000D03*
X287825000Y-102195000D03*
X301425000Y-80605000D03*
X287825000Y-83145000D03*
X301425000Y-61555000D03*
X287825000Y-64095000D03*
X282375000Y-99655000D03*
X268775000Y-102195000D03*
X282375000Y-80605000D03*
X268775000Y-83145000D03*
X282375000Y-61555000D03*
X268775000Y-64095000D03*
X282375000Y-42505000D03*
X268775000Y-45045000D03*
X263325000Y-99655000D03*
X249725000Y-102195000D03*
X263325000Y-80605000D03*
X249725000Y-83145000D03*
X260943750Y-61555000D03*
X247343750Y-64095000D03*
X244962500Y-45045000D03*
X258562500Y-42505000D03*
X263325000Y-23455000D03*
X249725000Y-25995000D03*
X244275000Y-99655000D03*
X230675000Y-102195000D03*
X244275000Y-80605000D03*
X230675000Y-83145000D03*
X239512500Y-61555000D03*
X225912500Y-64095000D03*
X234750000Y-42505000D03*
X221150000Y-45045000D03*
X244275000Y-23455000D03*
X230675000Y-25995000D03*
X222843750Y-99655000D03*
X209243750Y-102195000D03*
X225225000Y-80605000D03*
X211625000Y-83145000D03*
X220462500Y-61555000D03*
X206862500Y-64095000D03*
X215700000Y-42505000D03*
X202100000Y-45045000D03*
X225225000Y-23455000D03*
X211625000Y-25995000D03*
X201412500Y-99655000D03*
X187812500Y-102195000D03*
X206175000Y-80605000D03*
X192575000Y-83145000D03*
X201412500Y-61555000D03*
X187812500Y-64095000D03*
X196650000Y-42505000D03*
X183050000Y-45045000D03*
X206175000Y-23455000D03*
X192575000Y-25995000D03*
X187125000Y-80605000D03*
X173525000Y-83145000D03*
X182362500Y-61555000D03*
X168762500Y-64095000D03*
X177600000Y-42505000D03*
X164000000Y-45045000D03*
X187125000Y-23455000D03*
X173525000Y-25995000D03*
X163312500Y-61555000D03*
X149712500Y-64095000D03*
X158550000Y-42505000D03*
X144950000Y-45045000D03*
X168075000Y-23455000D03*
X154475000Y-25995000D03*
X149025000Y-80605000D03*
X135425000Y-83145000D03*
X144262500Y-61555000D03*
X130662500Y-64095000D03*
X139500000Y-42505000D03*
X125900000Y-45045000D03*
X149025000Y-23455000D03*
X135425000Y-25995000D03*
X129975000Y-23455000D03*
X116375000Y-25995000D03*
X129975000Y-80605000D03*
X116375000Y-83145000D03*
X125212500Y-61555000D03*
X111612500Y-64095000D03*
X120450000Y-42505000D03*
X106850000Y-45045000D03*
X110925000Y-23455000D03*
X97325000Y-25995000D03*
X106162500Y-99655000D03*
X92562500Y-102195000D03*
X110925000Y-80605000D03*
X97325000Y-83145000D03*
X106162500Y-61555000D03*
X92562500Y-64095000D03*
X101400000Y-42505000D03*
X87800000Y-45045000D03*
X91875000Y-23455000D03*
X78275000Y-25995000D03*
X91875000Y-80605000D03*
X78275000Y-83145000D03*
X87112500Y-61555000D03*
X73512500Y-64095000D03*
X82350000Y-42505000D03*
X68750000Y-45045000D03*
X72825000Y-23455000D03*
X59225000Y-25995000D03*
X72825000Y-80605000D03*
X59225000Y-83145000D03*
X68062500Y-61555000D03*
X54462500Y-64095000D03*
X63300000Y-42505000D03*
X49700000Y-45045000D03*
X53775000Y-23455000D03*
X40175000Y-25995000D03*
X37106250Y-99655000D03*
X23506250Y-102195000D03*
X25887500Y-45045000D03*
X39487500Y-42505000D03*
X34725000Y-23455000D03*
X21125000Y-25995000D03*
D18*
X291425000Y-19075000D03*
X294700000Y-18075000D03*
X207645000Y-98679000D03*
X47768750Y-107843750D03*
X287525000Y-20500000D03*
X73875001Y-58793751D03*
X294354999Y-25320001D03*
X223931250Y-58593750D03*
X247793750Y-77643750D03*
X252868751Y-34587501D03*
X101112500Y-77787500D03*
X304475000Y-29650000D03*
X276225000Y-23656002D03*
X269081250Y-98425000D03*
X121150000Y-106807000D03*
X197643750Y-35718750D03*
X197643750Y-38893750D03*
X135731250Y-33337500D03*
X116825000Y-33225000D03*
X304575000Y-31875000D03*
X285425000Y-38800000D03*
X289225000Y-38750000D03*
X159771501Y-95815999D03*
X306197000Y-95885000D03*
X173975000Y-38750000D03*
X315912500Y-38893750D03*
X299200000Y-31725000D03*
X296525000Y-31725000D03*
X320675000Y-32543750D03*
X268128750Y-38893750D03*
X275497749Y-37377251D03*
X285075000Y-23650000D03*
X300831250Y-32543750D03*
X144667499Y-41592499D03*
X141287500Y-71437500D03*
X311404000Y-70612000D03*
X316992000Y-89662000D03*
X151892000Y-87630000D03*
D19*
X34275000Y-23455000D02*
X35361250Y-23455000D01*
X37306250Y-25400000D02*
X37306250Y-29527500D01*
X35361250Y-23455000D02*
X37306250Y-25400000D01*
D20*
X37306250Y-31562500D02*
X37306250Y-29527500D01*
D19*
X26337500Y-61713750D02*
X28718750Y-64095000D01*
X26337500Y-45045000D02*
X26337500Y-61713750D01*
X28718750Y-64095000D02*
X28718750Y-72375000D01*
X31200000Y-74856250D02*
X31200000Y-83185000D01*
X28718750Y-72375000D02*
X31200000Y-74856250D01*
X193025000Y-25995000D02*
X193025000Y-37956250D01*
X193025000Y-37956250D02*
X191293750Y-39687500D01*
X191293750Y-39687500D02*
X184943750Y-39687500D01*
X183500000Y-41131250D02*
X183500000Y-45045000D01*
X184943750Y-39687500D02*
X183500000Y-41131250D01*
X188262500Y-52761502D02*
X183500000Y-47999002D01*
X183500000Y-47999002D02*
X183500000Y-45045000D01*
X188262500Y-64095000D02*
X188262500Y-52761502D01*
X193025000Y-82544998D02*
X193025000Y-83145000D01*
X188262500Y-64095000D02*
X188262500Y-77782498D01*
X188262500Y-77782498D02*
X193025000Y-82544998D01*
X193025000Y-83145000D02*
X193025000Y-93518750D01*
X188262500Y-98281250D02*
X188262500Y-102195000D01*
X193025000Y-93518750D02*
X188262500Y-98281250D01*
X25558750Y-83185000D02*
X22225000Y-86518750D01*
X22225000Y-86518750D02*
X22225000Y-100463750D01*
X22225000Y-100463750D02*
X23956250Y-102195000D01*
X31200000Y-83185000D02*
X25558750Y-83185000D01*
D21*
X21575000Y-25995000D02*
X21575000Y-25850000D01*
X193025000Y-25995000D02*
X193025000Y-23600000D01*
X26725000Y-20700000D02*
X190125000Y-20700000D01*
X190125000Y-20700000D02*
X193025000Y-23600000D01*
X21575000Y-25850000D02*
X26725000Y-20700000D01*
D19*
X21575000Y-40282500D02*
X21575000Y-25995000D01*
X26337500Y-45045000D02*
X21575000Y-40282500D01*
D21*
X212999501Y-19550499D02*
X288297501Y-19550499D01*
X197995000Y-21025000D02*
X211525000Y-21025000D01*
X211525000Y-21025000D02*
X212999501Y-19550499D01*
X193025000Y-25995000D02*
X197995000Y-21025000D01*
X288297501Y-19550499D02*
X288773000Y-19075000D01*
X289200000Y-19075000D02*
X291425000Y-19075000D01*
X288773000Y-19075000D02*
X289200000Y-19075000D01*
X294700000Y-18075000D02*
X294700000Y-18075000D01*
X302863250Y-20637500D02*
X300300750Y-18075000D01*
X300300750Y-18075000D02*
X294700000Y-18075000D01*
D20*
X44450000Y-50612500D02*
X44450000Y-48577500D01*
X39037500Y-42505000D02*
X42505000Y-42505000D01*
X44450000Y-44450000D02*
X44450000Y-48577500D01*
X42505000Y-42505000D02*
X44450000Y-44450000D01*
D19*
X47752000Y-66170000D02*
X47752000Y-64135000D01*
X47752000Y-64135000D02*
X45172000Y-61555000D01*
X45172000Y-61555000D02*
X44744000Y-61555000D01*
X44744000Y-61555000D02*
X41418750Y-61555000D01*
X55562500Y-88712500D02*
X55562500Y-86677500D01*
X49732500Y-86677500D02*
X55562500Y-86677500D01*
X43700000Y-80645000D02*
X49732500Y-86677500D01*
D20*
X40481250Y-107762500D02*
X40481250Y-105727500D01*
D19*
X40481250Y-103480000D02*
X36656250Y-99655000D01*
X40481250Y-105727500D02*
X40481250Y-103480000D01*
X53325000Y-23455000D02*
X55998750Y-23455000D01*
X56356250Y-23812500D02*
X56356250Y-29527500D01*
X55998750Y-23455000D02*
X56356250Y-23812500D01*
D20*
X56356250Y-31562500D02*
X56356250Y-29527500D01*
D19*
X40625000Y-25995000D02*
X40625000Y-32400000D01*
X50150000Y-45045000D02*
X50150000Y-43300000D01*
X50150000Y-43300000D02*
X40625000Y-33775000D01*
X40625000Y-32400000D02*
X40625000Y-33775000D01*
X54912500Y-64095000D02*
X52982500Y-64095000D01*
X52982500Y-64095000D02*
X50150000Y-61262500D01*
X50150000Y-61262500D02*
X50150000Y-45045000D01*
X54912500Y-64095000D02*
X54912500Y-77643750D01*
X54912500Y-77643750D02*
X59675000Y-82406250D01*
X59675000Y-82406250D02*
X59675000Y-83145000D01*
X207312500Y-67049002D02*
X207312500Y-64095000D01*
X212075000Y-71811502D02*
X207312500Y-67049002D01*
X212075000Y-83145000D02*
X212075000Y-71811502D01*
X202550000Y-47999002D02*
X202550000Y-45045000D01*
X207312500Y-52761502D02*
X202550000Y-47999002D01*
X207312500Y-64095000D02*
X207312500Y-52761502D01*
D21*
X46831250Y-103132500D02*
X47768750Y-102195000D01*
D19*
X47768750Y-102195000D02*
X47768750Y-107843750D01*
D21*
X47768750Y-107843750D02*
X47768750Y-107843750D01*
D19*
X59675000Y-93475000D02*
X56312500Y-96837500D01*
X56312500Y-96837500D02*
X52537500Y-96837500D01*
D21*
X47768750Y-102195000D02*
X47768750Y-101606250D01*
D19*
X47768750Y-101606250D02*
X52537500Y-96837500D01*
X59675000Y-83145000D02*
X59675000Y-93475000D01*
D21*
X212075000Y-25995000D02*
X212075000Y-22950000D01*
X212075000Y-22950000D02*
X214525000Y-20500000D01*
X214525000Y-20500000D02*
X287525000Y-20500000D01*
X305162500Y-20637500D02*
X305403250Y-20637500D01*
D19*
X205895000Y-41700000D02*
X202550000Y-45045000D01*
X207600000Y-41700000D02*
X205895000Y-41700000D01*
X212075000Y-37225000D02*
X207600000Y-41700000D01*
X212075000Y-25995000D02*
X212075000Y-37225000D01*
X212075000Y-94249000D02*
X212075000Y-83145000D01*
X209232500Y-97091500D02*
X212075000Y-94249000D01*
X209660250Y-97519250D02*
X209232500Y-97091500D01*
X209693750Y-97519250D02*
X209660250Y-97519250D01*
X207645000Y-98679000D02*
X209232500Y-97091500D01*
X209693750Y-102195000D02*
X209693750Y-97519250D01*
X209693750Y-97519250D02*
X209693750Y-96757250D01*
X62850000Y-42505000D02*
X63936250Y-42505000D01*
X63936250Y-42505000D02*
X65881250Y-44450000D01*
X65881250Y-44450000D02*
X65881250Y-48577500D01*
D20*
X65881250Y-50612500D02*
X65881250Y-48577500D01*
D19*
X67612500Y-61555000D02*
X67905000Y-61555000D01*
X67905000Y-61555000D02*
X70643750Y-64293750D01*
X70643750Y-64293750D02*
X70643750Y-67627500D01*
D20*
X70643750Y-69662500D02*
X70643750Y-67627500D01*
D19*
X72375000Y-80605000D02*
X74255000Y-80605000D01*
X74255000Y-80605000D02*
X75406250Y-81756250D01*
X75406250Y-81756250D02*
X75406250Y-86677500D01*
X75406250Y-88712500D02*
X75406250Y-86677500D01*
D20*
X64293750Y-107762500D02*
X64293750Y-105727500D01*
D19*
X64293750Y-103480000D02*
X60468750Y-99655000D01*
X64293750Y-105727500D02*
X64293750Y-103480000D01*
X72375000Y-23455000D02*
X75048750Y-23455000D01*
X75406250Y-23812500D02*
X75406250Y-29527500D01*
X75048750Y-23455000D02*
X75406250Y-23812500D01*
X75406250Y-31562500D02*
X75406250Y-29527500D01*
X59675000Y-25995000D02*
X59675000Y-34275000D01*
X69056250Y-38893750D02*
X69056250Y-44901250D01*
X69056250Y-44901250D02*
X69200000Y-45045000D01*
X64293750Y-38893750D02*
X69056250Y-38893750D01*
X59675000Y-34275000D02*
X64293750Y-38893750D01*
X69200000Y-45045000D02*
X69200000Y-52243750D01*
X69200000Y-52243750D02*
X71725000Y-54768750D01*
X71725000Y-54768750D02*
X72231250Y-54768750D01*
X73962500Y-56500000D02*
X73962500Y-64095000D01*
X72231250Y-54768750D02*
X73962500Y-56500000D01*
X78725000Y-71811502D02*
X78725000Y-83145000D01*
X73962500Y-67049002D02*
X78725000Y-71811502D01*
X73962500Y-64095000D02*
X73962500Y-67049002D01*
X221600000Y-47999002D02*
X226362500Y-52761502D01*
X226362500Y-52761502D02*
X226362500Y-55862500D01*
X221600000Y-45045000D02*
X221600000Y-47999002D01*
X231125000Y-82544998D02*
X231125000Y-83145000D01*
X226362500Y-64095000D02*
X226362500Y-77782498D01*
X226362500Y-77782498D02*
X231125000Y-82544998D01*
X231125000Y-83145000D02*
X231125000Y-99075000D01*
X231125000Y-99075000D02*
X231125000Y-102195000D01*
D21*
X222128998Y-45045000D02*
X221600000Y-45045000D01*
X231125000Y-25995000D02*
X229314999Y-27805001D01*
X229314999Y-27805001D02*
X229314999Y-37858999D01*
X229314999Y-37858999D02*
X222128998Y-45045000D01*
D19*
X226362500Y-58593750D02*
X226362500Y-64095000D01*
X226362500Y-55862500D02*
X226362500Y-58593750D01*
X78725000Y-93185752D02*
X78725000Y-83145000D01*
X71581250Y-100329502D02*
X78725000Y-93185752D01*
X71581250Y-102195000D02*
X71581250Y-100329502D01*
D21*
X285750000Y-21431250D02*
X286543750Y-22225000D01*
X231775000Y-21431250D02*
X285750000Y-21431250D01*
X231125000Y-22081250D02*
X231775000Y-21431250D01*
X231125000Y-25995000D02*
X231125000Y-22081250D01*
X286543750Y-22225000D02*
X286575000Y-22225000D01*
X287141170Y-22791170D02*
X293208830Y-22791170D01*
X286575000Y-22225000D02*
X287141170Y-22791170D01*
X293208830Y-22791170D02*
X294354999Y-23937339D01*
X294354999Y-23937339D02*
X294354999Y-25320001D01*
D19*
X226362500Y-56162500D02*
X226362500Y-55862500D01*
X223931250Y-58593750D02*
X226362500Y-56162500D01*
X81900000Y-42505000D02*
X82986250Y-42505000D01*
X82986250Y-42505000D02*
X84931250Y-44450000D01*
X84931250Y-44450000D02*
X84931250Y-48577500D01*
D20*
X84931250Y-50612500D02*
X84931250Y-48577500D01*
D19*
X86662500Y-64596250D02*
X89693750Y-67627500D01*
X86662500Y-61555000D02*
X86662500Y-64596250D01*
D20*
X89693750Y-69662500D02*
X89693750Y-67627500D01*
D19*
X91425000Y-80605000D02*
X93305000Y-80605000D01*
X93305000Y-80605000D02*
X94456250Y-81756250D01*
X94456250Y-81756250D02*
X94456250Y-86677500D01*
X94456250Y-88712500D02*
X94456250Y-86677500D01*
X84281250Y-99655000D02*
X86161250Y-99655000D01*
X86161250Y-99655000D02*
X88106250Y-101600000D01*
X88106250Y-101600000D02*
X88106250Y-105727500D01*
D20*
X88106250Y-107762500D02*
X88106250Y-105727500D01*
D19*
X91425000Y-23455000D02*
X94098750Y-23455000D01*
X94456250Y-23812500D02*
X94456250Y-29527500D01*
X94098750Y-23455000D02*
X94456250Y-23812500D01*
D20*
X94456250Y-31562500D02*
X94456250Y-29527500D01*
D19*
X78725000Y-25995000D02*
X78725000Y-32400000D01*
X78725000Y-32400000D02*
X86012500Y-39687500D01*
X86012500Y-42807500D02*
X88250000Y-45045000D01*
X86012500Y-39687500D02*
X86012500Y-42807500D01*
X88250000Y-45045000D02*
X88250000Y-52243750D01*
X88250000Y-52243750D02*
X90775000Y-54768750D01*
X90775000Y-54768750D02*
X92075000Y-54768750D01*
X93012500Y-55706250D02*
X93012500Y-64095000D01*
X92075000Y-54768750D02*
X93012500Y-55706250D01*
X245412500Y-61713750D02*
X247793750Y-64095000D01*
X245412500Y-45045000D02*
X245412500Y-61713750D01*
X250175000Y-40282500D02*
X245412500Y-45045000D01*
X250175000Y-37300000D02*
X250175000Y-40282500D01*
X247793750Y-80763750D02*
X250175000Y-83145000D01*
X247793750Y-77643750D02*
X247793750Y-80763750D01*
X247793750Y-64095000D02*
X247793750Y-77643750D01*
X250175000Y-83145000D02*
X250175000Y-102195000D01*
X97775000Y-82544998D02*
X97775000Y-83145000D01*
X250175000Y-25995000D02*
X250175000Y-34275000D01*
X250175000Y-34275000D02*
X250175000Y-37300000D01*
X97775000Y-83145000D02*
X97775000Y-81125000D01*
X97775000Y-81125000D02*
X101112500Y-77787500D01*
X93012500Y-71187500D02*
X93012500Y-64095000D01*
X93012500Y-72637500D02*
X93012500Y-71187500D01*
X97700000Y-77325000D02*
X93012500Y-72637500D01*
X97775000Y-77325000D02*
X97700000Y-77325000D01*
X97775000Y-83145000D02*
X97775000Y-77325000D01*
X97775000Y-95900000D02*
X97775000Y-83145000D01*
X93012500Y-100662500D02*
X97775000Y-95900000D01*
X93012500Y-102195000D02*
X93012500Y-100662500D01*
D21*
X250175000Y-37281252D02*
X250175000Y-37300000D01*
X252868751Y-34587501D02*
X250175000Y-37281252D01*
X310483250Y-20637500D02*
X307752750Y-23368000D01*
X307752750Y-23368000D02*
X305207000Y-23368000D01*
X305207000Y-23368000D02*
X304475000Y-24100000D01*
X304475000Y-24100000D02*
X304475000Y-29650000D01*
D19*
X100950000Y-45546250D02*
X103981250Y-48577500D01*
X100950000Y-42505000D02*
X100950000Y-45546250D01*
D20*
X103981250Y-50612500D02*
X103981250Y-48577500D01*
D19*
X108743750Y-62706250D02*
X108743750Y-67627500D01*
X105712500Y-61555000D02*
X107592500Y-61555000D01*
X107592500Y-61555000D02*
X108743750Y-62706250D01*
X108743750Y-69662500D02*
X108743750Y-67627500D01*
X110475000Y-80605000D02*
X112355000Y-80605000D01*
X113030000Y-83160000D02*
X110475000Y-80605000D01*
X113030000Y-83820000D02*
X113030000Y-83160000D01*
X113030000Y-85855000D02*
X113030000Y-83820000D01*
X105712500Y-99655000D02*
X106798750Y-99655000D01*
X106798750Y-99655000D02*
X108743750Y-101600000D01*
X108743750Y-101600000D02*
X108743750Y-105727500D01*
D20*
X108743750Y-107762500D02*
X108743750Y-105727500D01*
D19*
X110475000Y-23455000D02*
X113148750Y-23455000D01*
X113506250Y-23812500D02*
X113506250Y-29527500D01*
X113148750Y-23455000D02*
X113506250Y-23812500D01*
D20*
X113506250Y-31562500D02*
X113506250Y-29527500D01*
D19*
X107300000Y-42718750D02*
X107300000Y-45045000D01*
X97775000Y-33193750D02*
X107300000Y-42718750D01*
X97775000Y-25995000D02*
X97775000Y-33193750D01*
X116825000Y-86099002D02*
X116825000Y-83145000D01*
X121687500Y-90961502D02*
X116825000Y-86099002D01*
X121687500Y-102235000D02*
X121687500Y-95800000D01*
X121687500Y-95800000D02*
X121687500Y-90961502D01*
X112062500Y-77782498D02*
X116825000Y-82544998D01*
X112062500Y-64095000D02*
X112062500Y-77782498D01*
X116825000Y-82544998D02*
X116825000Y-83145000D01*
X112062500Y-63494998D02*
X112062500Y-64095000D01*
X107300000Y-45045000D02*
X107300000Y-58732498D01*
X107300000Y-58732498D02*
X112062500Y-63494998D01*
D21*
X269225000Y-25995000D02*
X269225000Y-26050000D01*
X266700000Y-28575000D02*
X266700000Y-42520000D01*
X266700000Y-42520000D02*
X269225000Y-45045000D01*
X269225000Y-26050000D02*
X266700000Y-28575000D01*
X269225000Y-45045000D02*
X269225000Y-64095000D01*
D19*
X269225000Y-83145000D02*
X269225000Y-64095000D01*
X269225000Y-83145000D02*
X269225000Y-102195000D01*
D21*
X276225000Y-23656002D02*
X276225000Y-23656002D01*
X121150000Y-102772500D02*
X121687500Y-102235000D01*
X121150000Y-106807000D02*
X121150000Y-102772500D01*
X274937748Y-22368750D02*
X276225000Y-23656002D01*
X269225000Y-25995000D02*
X269225000Y-23383000D01*
X269225000Y-23383000D02*
X270239250Y-22368750D01*
X270239250Y-22368750D02*
X274937748Y-22368750D01*
D19*
X120930001Y-46476251D02*
X123031250Y-48577500D01*
X120000000Y-42505000D02*
X120930001Y-43435001D01*
X120930001Y-43435001D02*
X120930001Y-46476251D01*
X123031250Y-50612500D02*
X123031250Y-48577500D01*
X124762500Y-64596250D02*
X127793750Y-67627500D01*
X124762500Y-61555000D02*
X124762500Y-64596250D01*
X127793750Y-69662500D02*
X127793750Y-67627500D01*
X131953000Y-83033000D02*
X129525000Y-80605000D01*
X131953000Y-83820000D02*
X131953000Y-83033000D01*
X131953000Y-85855000D02*
X131953000Y-83820000D01*
X139426250Y-104933750D02*
X145256250Y-104933750D01*
X134187500Y-99695000D02*
X139426250Y-104933750D01*
D20*
X145256250Y-106968750D02*
X145256250Y-104933750D01*
D19*
X132556250Y-25400000D02*
X132556250Y-29527500D01*
X129525000Y-23455000D02*
X130611250Y-23455000D01*
X130611250Y-23455000D02*
X132556250Y-25400000D01*
D20*
X132556250Y-29527500D02*
X132556250Y-31562500D01*
D19*
X197643750Y-35718750D02*
X197643750Y-38893750D01*
X197643750Y-38893750D02*
X197643750Y-38893750D01*
X135875000Y-25995000D02*
X135875000Y-33193750D01*
X126350000Y-43512500D02*
X126350000Y-45045000D01*
X116825000Y-33987500D02*
X126350000Y-43512500D01*
X116825000Y-25995000D02*
X116825000Y-33225000D01*
X116825000Y-33225000D02*
X116825000Y-33987500D01*
X131112500Y-52761502D02*
X131112500Y-64095000D01*
X126350000Y-47999002D02*
X131112500Y-52761502D01*
X126350000Y-45045000D02*
X126350000Y-47999002D01*
X135875000Y-82544998D02*
X135875000Y-83145000D01*
X131112500Y-64095000D02*
X131112500Y-77782498D01*
X131112500Y-77782498D02*
X135875000Y-82544998D01*
D20*
X135875000Y-25034998D02*
X135875000Y-25995000D01*
X116825000Y-25995000D02*
X116872998Y-25995000D01*
D21*
X288275000Y-45045000D02*
X288275000Y-64095000D01*
X288275000Y-64095000D02*
X288275000Y-83145000D01*
D19*
X288275000Y-83145000D02*
X288275000Y-102195000D01*
D21*
X286742500Y-25995000D02*
X284956250Y-27781250D01*
X288275000Y-25995000D02*
X286742500Y-25995000D01*
X288131250Y-25851250D02*
X288275000Y-25995000D01*
X304575000Y-31875000D02*
X304175000Y-32275000D01*
X304175000Y-32275000D02*
X304175000Y-38125000D01*
X284956250Y-27781250D02*
X284956250Y-38331250D01*
X284956250Y-38331250D02*
X285425000Y-38800000D01*
X285425000Y-38800000D02*
X285450000Y-38825000D01*
D19*
X288318758Y-45001242D02*
X288275000Y-45045000D01*
D21*
X303550000Y-38750000D02*
X303738000Y-38562000D01*
X304175000Y-38125000D02*
X303738000Y-38562000D01*
X304175000Y-38125000D02*
X304175000Y-38217000D01*
X304175000Y-38217000D02*
X302514000Y-39878000D01*
X289225000Y-38750000D02*
X289956000Y-38750000D01*
X302514000Y-39878000D02*
X291084000Y-39878000D01*
X288275000Y-45045000D02*
X288275000Y-42687000D01*
X288275000Y-42687000D02*
X290639500Y-40322500D01*
X290957000Y-40005000D02*
X290893500Y-40068500D01*
X290893500Y-40068500D02*
X291084000Y-39878000D01*
X290957000Y-39751000D02*
X290957000Y-40005000D01*
X290957000Y-39751000D02*
X291084000Y-39878000D01*
X289956000Y-38750000D02*
X290830000Y-39624000D01*
X290830000Y-39624000D02*
X290957000Y-39751000D01*
X290830000Y-40132000D02*
X290639500Y-40322500D01*
X290830000Y-39624000D02*
X290830000Y-40132000D01*
X290639500Y-40322500D02*
X290893500Y-40068500D01*
D19*
X150455000Y-23455000D02*
X151606250Y-24606250D01*
X151606250Y-24606250D02*
X151606250Y-25400000D01*
X151606250Y-25400000D02*
X151606250Y-29527500D01*
X148575000Y-23455000D02*
X150455000Y-23455000D01*
D20*
X151606250Y-31562500D02*
X151606250Y-29527500D01*
D19*
X139050000Y-42505000D02*
X141723750Y-42505000D01*
X142081250Y-42862500D02*
X142081250Y-48577500D01*
X141723750Y-42505000D02*
X142081250Y-42862500D01*
D20*
X142081250Y-50612500D02*
X142081250Y-48577500D01*
D19*
X143812500Y-64596250D02*
X146843750Y-67627500D01*
X143812500Y-61555000D02*
X143812500Y-64596250D01*
X146843750Y-67627500D02*
X146843750Y-69056250D01*
X146843750Y-69056250D02*
X146843750Y-69662500D01*
X148575000Y-81646000D02*
X150622000Y-83693000D01*
X148575000Y-80605000D02*
X148575000Y-81646000D01*
X150241000Y-85725000D02*
X150241000Y-83690000D01*
X167625000Y-23455000D02*
X168711250Y-23455000D01*
X168711250Y-23455000D02*
X170656250Y-25400000D01*
X170656250Y-25400000D02*
X170656250Y-29527500D01*
D20*
X170656250Y-31562500D02*
X170656250Y-29527500D01*
D19*
X150162500Y-52761502D02*
X150162500Y-64095000D01*
X145400000Y-47999002D02*
X150162500Y-52761502D01*
X145400000Y-45045000D02*
X145400000Y-47999002D01*
X150162500Y-64095000D02*
X150162500Y-69993750D01*
X154925000Y-74756250D02*
X154925000Y-83145000D01*
X150162500Y-69993750D02*
X154925000Y-74756250D01*
X307325000Y-83145000D02*
X307325000Y-64095000D01*
X307325000Y-64095000D02*
X307325000Y-45045000D01*
X307237501Y-44957501D02*
X307325000Y-45045000D01*
X307325000Y-102195000D02*
X307325000Y-96981250D01*
X159771501Y-102219001D02*
X159787500Y-102235000D01*
X159771501Y-95815999D02*
X159771501Y-102219001D01*
X159771501Y-95815999D02*
X154781250Y-90825748D01*
X154781250Y-83288750D02*
X154925000Y-83145000D01*
X154781250Y-90825748D02*
X154781250Y-83288750D01*
D21*
X307181250Y-96837500D02*
X307325000Y-96693750D01*
D19*
X307325000Y-96981250D02*
X307325000Y-96693750D01*
X307325000Y-96981250D02*
X307325000Y-96981250D01*
D21*
X307325000Y-25995000D02*
X307325000Y-26950000D01*
X307325000Y-26950000D02*
X306850000Y-27425000D01*
X306850000Y-44570000D02*
X307325000Y-45045000D01*
D19*
X145400000Y-45045000D02*
X150170000Y-40275000D01*
X150170000Y-40275000D02*
X152225000Y-40275000D01*
X154925000Y-37575000D02*
X154925000Y-35600000D01*
X152225000Y-40275000D02*
X154925000Y-37575000D01*
X154925000Y-25995000D02*
X154925000Y-35600000D01*
D21*
X306850000Y-27425000D02*
X306850000Y-44570000D01*
D19*
X307325000Y-94757000D02*
X307325000Y-83145000D01*
X307325000Y-96693750D02*
X307325000Y-94757000D01*
X306197000Y-95885000D02*
X306197000Y-95885000D01*
X306197000Y-95885000D02*
X307325000Y-94757000D01*
D21*
X318103250Y-19462750D02*
X318103250Y-20637500D01*
X317436500Y-18796000D02*
X318103250Y-19462750D01*
X312547000Y-18796000D02*
X317436500Y-18796000D01*
X311694000Y-21626000D02*
X311694000Y-19649000D01*
X311694000Y-19649000D02*
X312547000Y-18796000D01*
X307325000Y-25995000D02*
X311694000Y-21626000D01*
D19*
X158100000Y-45546250D02*
X161131250Y-48577500D01*
X158100000Y-42505000D02*
X158100000Y-45546250D01*
X161131250Y-48577500D02*
X161131250Y-50612500D01*
X162862500Y-64596250D02*
X165893750Y-67627500D01*
X162862500Y-61555000D02*
X162862500Y-64596250D01*
X165893750Y-69662500D02*
X165893750Y-67627500D01*
X169926000Y-85855000D02*
X169926000Y-83820000D01*
X169926000Y-82906000D02*
X167625000Y-80605000D01*
X169926000Y-83820000D02*
X169926000Y-82906000D01*
X177526250Y-104933750D02*
X183356250Y-104933750D01*
X172287500Y-99695000D02*
X177526250Y-104933750D01*
D20*
X183356250Y-106968750D02*
X183356250Y-104933750D01*
D19*
X186675000Y-23455000D02*
X187761250Y-23455000D01*
X187761250Y-23455000D02*
X189706250Y-25400000D01*
X189706250Y-25400000D02*
X189706250Y-29527500D01*
D20*
X189706250Y-29527500D02*
X189706250Y-31562500D01*
D19*
X173975000Y-25995000D02*
X173975000Y-38750000D01*
X164450000Y-47999002D02*
X164450000Y-45045000D01*
X169212500Y-52761502D02*
X164450000Y-47999002D01*
X169212500Y-64095000D02*
X169212500Y-52761502D01*
X173975000Y-82544998D02*
X173975000Y-83145000D01*
X169212500Y-64095000D02*
X169212500Y-77782498D01*
X169212500Y-77782498D02*
X173975000Y-82544998D01*
X173975000Y-38750000D02*
X173975000Y-38750000D01*
D21*
X315912500Y-36206750D02*
X315563250Y-35857500D01*
X315912500Y-38893750D02*
X315912500Y-36206750D01*
D19*
X164306250Y-44901250D02*
X164450000Y-45045000D01*
X164306250Y-41918750D02*
X164306250Y-44901250D01*
X165743750Y-40481250D02*
X164306250Y-41918750D01*
X172243750Y-40481250D02*
X165743750Y-40481250D01*
X173975000Y-38750000D02*
X172243750Y-40481250D01*
X178080001Y-46476251D02*
X180181250Y-48577500D01*
X177150000Y-42505000D02*
X178080001Y-43435001D01*
X178080001Y-43435001D02*
X178080001Y-46476251D01*
X180181250Y-50612500D02*
X180181250Y-49212500D01*
X180181250Y-49212500D02*
X180181250Y-48577500D01*
X184943750Y-64586250D02*
X184943750Y-67627500D01*
X181912500Y-61555000D02*
X184943750Y-64586250D01*
X184943750Y-67627500D02*
X184943750Y-69662500D01*
X186675000Y-80605000D02*
X189706250Y-83636250D01*
X189706250Y-84236252D02*
X189706250Y-86677500D01*
X189706250Y-83636250D02*
X189706250Y-84236252D01*
X189706250Y-88712500D02*
X189706250Y-86677500D01*
X206655001Y-24385001D02*
X206655001Y-35046251D01*
X205725000Y-23455000D02*
X206655001Y-24385001D01*
X206655001Y-35046251D02*
X208756250Y-37147500D01*
D20*
X208756250Y-37147500D02*
X208756250Y-35112500D01*
D19*
X198082749Y-55048999D02*
X199231250Y-56197500D01*
X198082749Y-44387749D02*
X198082749Y-55048999D01*
X196200000Y-42505000D02*
X198082749Y-44387749D01*
X199231250Y-56197500D02*
X199231250Y-54162500D01*
X203993750Y-75247500D02*
X203993750Y-73212500D01*
X203993750Y-75247500D02*
X202565000Y-75247500D01*
X202565000Y-63157500D02*
X200962500Y-61555000D01*
X202565000Y-75247500D02*
X202565000Y-63157500D01*
X208756250Y-92262500D02*
X208756250Y-94297500D01*
X205725000Y-80605000D02*
X205725000Y-81138000D01*
X207216375Y-92757625D02*
X208756250Y-94297500D01*
X205725000Y-81138000D02*
X207216375Y-82629375D01*
X207216375Y-82629375D02*
X207216375Y-92757625D01*
D20*
X203993750Y-113347500D02*
X203993750Y-111312500D01*
D19*
X203993750Y-113347500D02*
X203993750Y-111406250D01*
X203993750Y-111406250D02*
X205900000Y-109500000D01*
X205900000Y-102350000D02*
X203205000Y-99655000D01*
X203205000Y-99655000D02*
X200962500Y-99655000D01*
X205900000Y-109500000D02*
X205900000Y-102350000D01*
X225705001Y-35046251D02*
X227806250Y-37147500D01*
X224775000Y-23455000D02*
X225705001Y-24385001D01*
X225705001Y-24385001D02*
X225705001Y-35046251D01*
D20*
X227806250Y-37147500D02*
X227806250Y-35112500D01*
D19*
X216180001Y-54096251D02*
X218281250Y-56197500D01*
X215250000Y-42505000D02*
X216180001Y-43435001D01*
X216180001Y-43435001D02*
X216180001Y-54096251D01*
X218281250Y-54162500D02*
X218281250Y-56197500D01*
X220942501Y-62485001D02*
X220942501Y-73305001D01*
X220012500Y-61555000D02*
X220942501Y-62485001D01*
X222885000Y-75247500D02*
X223043750Y-75247500D01*
X220942501Y-73305001D02*
X222885000Y-75247500D01*
X223043750Y-73212500D02*
X223043750Y-75247500D01*
X227806250Y-94297500D02*
X227806250Y-92262500D01*
X224775000Y-80605000D02*
X224775000Y-81138000D01*
X226187000Y-82550000D02*
X226187000Y-92678250D01*
X226187000Y-92678250D02*
X227806250Y-94297500D01*
X224775000Y-81138000D02*
X226187000Y-82550000D01*
X223323751Y-110452501D02*
X226218750Y-113347500D01*
X222393750Y-99655000D02*
X223323751Y-100585001D01*
X223323751Y-100585001D02*
X223323751Y-110452501D01*
D20*
X226218750Y-113347500D02*
X226218750Y-111312500D01*
D19*
X244755001Y-35046251D02*
X246856250Y-37147500D01*
X243825000Y-23455000D02*
X244755001Y-24385001D01*
X244755001Y-24385001D02*
X244755001Y-35046251D01*
D20*
X246856250Y-35112500D02*
X246856250Y-37147500D01*
D19*
X235230001Y-54096251D02*
X237331250Y-56197500D01*
X234300000Y-42505000D02*
X235230001Y-43435001D01*
X235230001Y-43435001D02*
X235230001Y-54096251D01*
X237331250Y-56197500D02*
X237331250Y-54768750D01*
X237331250Y-54768750D02*
X237331250Y-54162500D01*
X239992501Y-73146251D02*
X242093750Y-75247500D01*
X239062500Y-61555000D02*
X239992501Y-62485001D01*
X239992501Y-62485001D02*
X239992501Y-73146251D01*
X242093750Y-75247500D02*
X242093750Y-73818750D01*
X242093750Y-73818750D02*
X242093750Y-73212500D01*
X245707749Y-93148999D02*
X246856250Y-94297500D01*
X245707749Y-82487749D02*
X245707749Y-93148999D01*
X243825000Y-80605000D02*
X245707749Y-82487749D01*
X246856250Y-92262500D02*
X246856250Y-94297500D01*
X244755001Y-111246251D02*
X246856250Y-113347500D01*
X243825000Y-99655000D02*
X244755001Y-100585001D01*
X244755001Y-100585001D02*
X244755001Y-111246251D01*
D20*
X246856250Y-113347500D02*
X246856250Y-111312500D01*
D19*
X262875000Y-23455000D02*
X263805001Y-24385001D01*
X263963999Y-24543999D02*
X262875000Y-23455000D01*
X265112500Y-34506250D02*
X263963999Y-33357749D01*
X263963999Y-33357749D02*
X263963999Y-24543999D01*
D20*
X265112500Y-36541250D02*
X265112500Y-34506250D01*
D19*
X259042501Y-43435001D02*
X259042501Y-51715001D01*
X258112500Y-42505000D02*
X259042501Y-43435001D01*
X259042501Y-51715001D02*
X263525000Y-56197500D01*
X263525000Y-54162500D02*
X263525000Y-56197500D01*
X264981249Y-74322499D02*
X265906250Y-75247500D01*
X264981249Y-68924999D02*
X264981249Y-74322499D01*
X260493750Y-64437500D02*
X264981249Y-68924999D01*
X260493750Y-61555000D02*
X260493750Y-64437500D01*
X265906250Y-73212500D02*
X265906250Y-75247500D01*
D20*
X265906250Y-94297500D02*
X265906250Y-92262500D01*
D19*
X262875000Y-80605000D02*
X264287000Y-82017000D01*
X264287000Y-82017000D02*
X264287000Y-92678250D01*
X264287000Y-92678250D02*
X265906250Y-94297500D01*
X263805001Y-111246251D02*
X265906250Y-113347500D01*
X262875000Y-99655000D02*
X263805001Y-100585001D01*
X263805001Y-100585001D02*
X263805001Y-111246251D01*
D20*
X265906250Y-113347500D02*
X265906250Y-111312500D01*
X268287500Y-36353750D02*
X268287500Y-34925000D01*
D21*
X268287500Y-36353750D02*
X273221250Y-36353750D01*
X273221250Y-36353750D02*
X278930000Y-30645000D01*
X281925000Y-24399000D02*
X278930000Y-27394000D01*
X278930000Y-27394000D02*
X278930000Y-30645000D01*
X281925000Y-23455000D02*
X281925000Y-24399000D01*
D19*
X282855001Y-54096251D02*
X284956250Y-56197500D01*
X281925000Y-42505000D02*
X282855001Y-43435001D01*
X282855001Y-43435001D02*
X282855001Y-54096251D01*
D20*
X284956250Y-56197500D02*
X284956250Y-54768750D01*
D19*
X282855001Y-73146251D02*
X284956250Y-75247500D01*
X281925000Y-61555000D02*
X282855001Y-62485001D01*
X282855001Y-62485001D02*
X282855001Y-73146251D01*
X284956250Y-73212500D02*
X284956250Y-75247500D01*
D20*
X284956250Y-94297500D02*
X284956250Y-92262500D01*
D19*
X281925000Y-80605000D02*
X281925000Y-80630000D01*
X283464000Y-82169000D02*
X283464000Y-92805250D01*
X283464000Y-92805250D02*
X284956250Y-94297500D01*
X281925000Y-80630000D02*
X283464000Y-82169000D01*
D20*
X284956250Y-113347500D02*
X284956250Y-111312500D01*
D19*
X281925000Y-99655000D02*
X283350000Y-101080000D01*
X283350000Y-101080000D02*
X283350000Y-112050000D01*
X284647500Y-113347500D02*
X284956250Y-113347500D01*
X283350000Y-112050000D02*
X284647500Y-113347500D01*
D20*
X286543750Y-37147500D02*
X286543750Y-35112500D01*
D21*
X286543750Y-35112500D02*
X286543750Y-35006250D01*
X286543750Y-35006250D02*
X289825000Y-31725000D01*
X296525000Y-31725000D02*
X296525000Y-31725000D01*
X299200000Y-31725000D02*
X299875000Y-31725000D01*
X303000000Y-28575000D02*
X303000000Y-25480000D01*
X303000000Y-25480000D02*
X300975000Y-23455000D01*
X301780001Y-29794999D02*
X303000000Y-28575000D01*
X299875000Y-31725000D02*
X301780001Y-29819999D01*
X301780001Y-29819999D02*
X301780001Y-29794999D01*
X289825000Y-31725000D02*
X296525000Y-31725000D01*
D19*
X301905001Y-54096251D02*
X304006250Y-56197500D01*
X300975000Y-42505000D02*
X301905001Y-43435001D01*
X301905001Y-43435001D02*
X301905001Y-54096251D01*
D20*
X304006250Y-54162500D02*
X304006250Y-56197500D01*
D19*
X302857749Y-74098999D02*
X304006250Y-75247500D01*
X300975000Y-61555000D02*
X300975000Y-62896468D01*
X300975000Y-62896468D02*
X302857749Y-64779217D01*
X302857749Y-64779217D02*
X302857749Y-74098999D01*
X304006250Y-73212500D02*
X304006250Y-75247500D01*
D20*
X304006250Y-94297500D02*
X304006250Y-92262500D01*
D19*
X300975000Y-80605000D02*
X300975000Y-81011000D01*
X302387000Y-82423000D02*
X302387000Y-92678250D01*
X302387000Y-92678250D02*
X304006250Y-94297500D01*
X300975000Y-81011000D02*
X302387000Y-82423000D01*
X302857749Y-112198999D02*
X304006250Y-113347500D01*
X302857749Y-101537749D02*
X302857749Y-112198999D01*
X300975000Y-99655000D02*
X302857749Y-101537749D01*
D20*
X304006250Y-113347500D02*
X304006250Y-111312500D01*
D19*
X320025000Y-23455000D02*
X320955001Y-24385001D01*
D20*
X283368750Y-38735000D02*
X283368750Y-36700000D01*
D19*
X321074999Y-24504999D02*
X320025000Y-23455000D01*
X321074999Y-32143751D02*
X321074999Y-24504999D01*
X320675000Y-32543750D02*
X321074999Y-32143751D01*
X320955001Y-54890001D02*
X322262500Y-56197500D01*
X320025000Y-42505000D02*
X320955001Y-43435001D01*
X320955001Y-43435001D02*
X320955001Y-54890001D01*
D20*
X322262500Y-56197500D02*
X322262500Y-54162500D01*
D19*
X320955001Y-73940001D02*
X322262500Y-75247500D01*
X320025000Y-61555000D02*
X320955001Y-62485001D01*
X320955001Y-62485001D02*
X320955001Y-73940001D01*
D20*
X322262500Y-75247500D02*
X322262500Y-73212500D01*
D19*
X320955001Y-92990001D02*
X322262500Y-94297500D01*
X320025000Y-80605000D02*
X320955001Y-81535001D01*
X320955001Y-81535001D02*
X320955001Y-92990001D01*
D20*
X322262500Y-94297500D02*
X322262500Y-92262500D01*
D19*
X320025000Y-99655000D02*
X320955001Y-100585001D01*
D20*
X322262500Y-113347500D02*
X322262500Y-111918750D01*
D19*
X320955001Y-102716999D02*
X320955001Y-102896001D01*
X320955001Y-112040001D02*
X322262500Y-113347500D01*
X320955001Y-112040001D02*
X320955001Y-102589999D01*
X320955001Y-102589999D02*
X320955001Y-102716999D01*
X320955001Y-100585001D02*
X320955001Y-102589999D01*
X290163250Y-35857500D02*
X289857500Y-35857500D01*
X297783250Y-35857500D02*
X300323250Y-35857500D01*
X290163250Y-35857500D02*
X292055750Y-37750000D01*
X295890750Y-37750000D02*
X297783250Y-35857500D01*
X292055750Y-37750000D02*
X295890750Y-37750000D01*
X292630749Y-18024999D02*
X292574999Y-18024999D01*
X262500001Y-18024999D02*
X292574999Y-18024999D01*
X295243250Y-20637500D02*
X292630749Y-18024999D01*
X285845750Y-40175000D02*
X290163250Y-35857500D01*
X269950000Y-38893750D02*
X268128750Y-38893750D01*
X269950000Y-38893750D02*
X280568750Y-38893750D01*
X280568750Y-38893750D02*
X281850000Y-40175000D01*
X281850000Y-40175000D02*
X285845750Y-40175000D01*
X170152000Y-18025000D02*
X174393750Y-18025000D01*
X174393750Y-18025000D02*
X175124000Y-18025000D01*
X168950000Y-19227000D02*
X170152000Y-18025000D01*
X173950000Y-19199000D02*
X175124000Y-18025000D01*
X173950000Y-19227000D02*
X173950000Y-19199000D01*
X175124000Y-18025000D02*
X262600000Y-18025000D01*
X295243250Y-20637500D02*
X295243250Y-23809252D01*
X295243250Y-23809252D02*
X297783250Y-26349252D01*
X297783250Y-26349252D02*
X297783250Y-35857500D01*
X268128750Y-38893750D02*
X268128750Y-38893750D01*
D21*
X279654000Y-33240840D02*
X279654000Y-27559000D01*
X275517589Y-37377251D02*
X279654000Y-33240840D01*
X275497749Y-37377251D02*
X275517589Y-37377251D01*
X280479500Y-26733500D02*
X283908500Y-26733500D01*
X279654000Y-27559000D02*
X280479500Y-26733500D01*
X285075000Y-25567000D02*
X285075000Y-23650000D01*
X283908500Y-26733500D02*
X285075000Y-25567000D01*
X290163250Y-20637500D02*
X289856990Y-20331240D01*
D20*
X189706250Y-35112500D02*
X189706250Y-37147500D01*
X283368750Y-33150000D02*
X283368750Y-31115000D01*
X265112500Y-28921250D02*
X265112500Y-30956250D01*
X268287500Y-28733750D02*
X268287500Y-30768750D01*
X246856250Y-31562500D02*
X246856250Y-29527500D01*
X227806250Y-31562500D02*
X227806250Y-29527500D01*
X208756250Y-31562500D02*
X208756250Y-29527500D01*
X170656250Y-37147500D02*
X170656250Y-35112500D01*
X37306250Y-35112500D02*
X37306250Y-37147500D01*
X56356250Y-37147500D02*
X56356250Y-35112500D01*
X94456250Y-35112500D02*
X94456250Y-37147500D01*
X113506250Y-37147500D02*
X113506250Y-35112500D01*
X132556250Y-35112500D02*
X132556250Y-37147500D01*
D21*
X286543750Y-31562500D02*
X286543750Y-29527500D01*
D19*
X75406250Y-35112500D02*
X75406250Y-37147500D01*
D21*
X300831250Y-32543750D02*
X300831250Y-32543750D01*
X302863250Y-35857500D02*
X302863250Y-34575750D01*
X302863250Y-34575750D02*
X300831250Y-32543750D01*
D20*
X284956250Y-50612500D02*
X284956250Y-48577500D01*
X304006250Y-48577500D02*
X304006250Y-50612500D01*
X322262500Y-50612500D02*
X322262500Y-48577500D01*
X44450000Y-56197500D02*
X44450000Y-54162500D01*
X65881250Y-56197500D02*
X65881250Y-54162500D01*
X103981250Y-56197500D02*
X103981250Y-54162500D01*
X84931250Y-56197500D02*
X84931250Y-54162500D01*
X151606250Y-37147500D02*
X151606250Y-35112500D01*
D19*
X161131250Y-54162500D02*
X161131250Y-55562500D01*
X180181250Y-54162500D02*
X180181250Y-55562500D01*
X123031250Y-54162500D02*
X123031250Y-55562500D01*
X199231250Y-50612500D02*
X199231250Y-48577500D01*
X218281250Y-48577500D02*
X218281250Y-50612500D01*
X237331250Y-50612500D02*
X237331250Y-48577500D01*
X263525000Y-48577500D02*
X263525000Y-50612500D01*
X149112498Y-37147500D02*
X151606250Y-37147500D01*
X144667499Y-41592499D02*
X149112498Y-37147500D01*
D21*
X304006250Y-40925750D02*
X305403250Y-39528750D01*
X305403250Y-39528750D02*
X305403250Y-35857500D01*
X304006250Y-48577500D02*
X304006250Y-40925750D01*
D20*
X322262500Y-69662500D02*
X322262500Y-67627500D01*
X70643750Y-73818750D02*
X70643750Y-75247500D01*
X89693750Y-75247500D02*
X89693750Y-73212500D01*
X142081250Y-56197500D02*
X142081250Y-54162500D01*
D19*
X108743750Y-73212500D02*
X108743750Y-75247500D01*
X127793750Y-75247500D02*
X127793750Y-73212500D01*
X165893750Y-75247500D02*
X165893750Y-73212500D01*
X142081250Y-56197500D02*
X137107502Y-56197500D01*
X141287500Y-66223998D02*
X141287500Y-71437500D01*
X137107502Y-56197500D02*
X136252501Y-57052501D01*
X136252501Y-57052501D02*
X136252501Y-61188999D01*
X136252501Y-61188999D02*
X141287500Y-66223998D01*
X304006250Y-67627500D02*
X304006250Y-69662500D01*
X284956250Y-69662500D02*
X284956250Y-67627500D01*
X265906250Y-67627500D02*
X265906250Y-69662500D01*
X242093750Y-69662500D02*
X242093750Y-67627500D01*
X223043750Y-67627500D02*
X223043750Y-69662500D01*
X203993750Y-69662500D02*
X203993750Y-67627500D01*
X184943750Y-73212500D02*
X184943750Y-75247500D01*
D21*
X311404000Y-70612000D02*
X311404000Y-70612000D01*
X311404000Y-47104998D02*
X312674000Y-45834998D01*
X311404000Y-61976000D02*
X311404000Y-47104998D01*
X312610500Y-43942000D02*
X307943250Y-39274750D01*
X312674000Y-43942000D02*
X312610500Y-43942000D01*
X312674000Y-63246000D02*
X311404000Y-61976000D01*
X311404000Y-66040000D02*
X312674000Y-64770000D01*
X312674000Y-64770000D02*
X312674000Y-63246000D01*
X311404000Y-70612000D02*
X311404000Y-66040000D01*
X312674000Y-43942000D02*
X307943250Y-39211250D01*
X312674000Y-44196000D02*
X312674000Y-43942000D01*
X307943250Y-39211250D02*
X307943250Y-35857500D01*
X307943250Y-39274750D02*
X307943250Y-39211250D01*
X312674000Y-45834998D02*
X312674000Y-44196000D01*
D19*
X47752000Y-69720000D02*
X47752000Y-71755000D01*
D20*
X304006250Y-88712500D02*
X304006250Y-86677500D01*
X322262500Y-88712500D02*
X322262500Y-86677500D01*
X284956250Y-88712500D02*
X284956250Y-86677500D01*
X265906250Y-88712500D02*
X265906250Y-86677500D01*
D19*
X146843750Y-73212500D02*
X146843750Y-75247500D01*
X55562500Y-92262500D02*
X55562500Y-94297500D01*
X75406250Y-94297500D02*
X75406250Y-92262500D01*
X94456250Y-92262500D02*
X94456250Y-94297500D01*
X169926000Y-89408000D02*
X169926000Y-91443000D01*
X189706250Y-94297500D02*
X189706250Y-92262500D01*
X208756250Y-86677500D02*
X208756250Y-88712500D01*
X227806250Y-88712500D02*
X227806250Y-86677500D01*
X246856250Y-86677500D02*
X246856250Y-88712500D01*
D21*
X316992000Y-89662000D02*
X316992000Y-89662000D01*
X316484000Y-76581000D02*
X314065491Y-78999509D01*
X316650001Y-76414999D02*
X316484000Y-76581000D01*
X314065491Y-81666509D02*
X314076509Y-81666509D01*
X314065491Y-78999509D02*
X314065491Y-81666509D01*
X314076509Y-81666509D02*
X316992000Y-84582000D01*
X316992000Y-85217000D02*
X316992000Y-89662000D01*
X316738000Y-76327000D02*
X316484000Y-76581000D01*
X313817000Y-60071000D02*
X313817000Y-62484000D01*
X310483250Y-39846250D02*
X316922990Y-46285990D01*
X316922990Y-56965010D02*
X313817000Y-60071000D01*
X310483250Y-35857500D02*
X310483250Y-39846250D01*
X316922990Y-46285990D02*
X316922990Y-56965010D01*
X313817000Y-62484000D02*
X317119000Y-65786000D01*
X317119000Y-65786000D02*
X317119000Y-75946000D01*
X317119000Y-75946000D02*
X316738000Y-76327000D01*
D19*
X148907500Y-75247500D02*
X146843750Y-75247500D01*
X151897501Y-84830499D02*
X151897501Y-78237501D01*
X151897501Y-78237501D02*
X148907500Y-75247500D01*
X113030000Y-91440000D02*
X113030000Y-89405000D01*
X131953000Y-91440000D02*
X131953000Y-89405000D01*
X151897501Y-85349501D02*
X151897501Y-84830499D01*
X151892000Y-87630000D02*
X151892000Y-86625002D01*
X151892000Y-86625002D02*
X151897501Y-86619501D01*
X151897501Y-86619501D02*
X151897501Y-87127501D01*
X151897501Y-84830499D02*
X151897501Y-86619501D01*
D21*
X316992000Y-84582000D02*
X316992000Y-85217000D01*
D20*
X40481250Y-113347500D02*
X40481250Y-111312500D01*
X64293750Y-111312500D02*
X64293750Y-113347500D01*
X88106250Y-113347500D02*
X88106250Y-111312500D01*
X108743750Y-113347500D02*
X108743750Y-111312500D01*
X145256250Y-112553750D02*
X145256250Y-110518750D01*
X183356250Y-110518750D02*
X183356250Y-112553750D01*
X203993750Y-107762500D02*
X203993750Y-105727500D01*
X226218750Y-107762500D02*
X226218750Y-105727500D01*
X246856250Y-107762500D02*
X246856250Y-105727500D01*
X265906250Y-107762500D02*
X265906250Y-105727500D01*
X284956250Y-107762500D02*
X284956250Y-105727500D01*
X304006250Y-107762500D02*
X304006250Y-105727500D01*
X322262500Y-107762500D02*
X322262500Y-105727500D01*
D19*
X183356250Y-112553750D02*
X198471250Y-112553750D01*
X203993750Y-107031250D02*
X203993750Y-105727500D01*
X198471250Y-112553750D02*
X203993750Y-107031250D01*
D21*
X313023250Y-41497250D02*
X313023250Y-35857500D01*
X322262500Y-105727500D02*
X322389500Y-105727500D01*
X322925000Y-105192000D02*
X322925000Y-97450000D01*
X322925000Y-97450000D02*
X317779000Y-92304000D01*
X317779000Y-84607000D02*
X314706000Y-81534000D01*
X317779000Y-92304000D02*
X317779000Y-84607000D01*
X314452000Y-62357000D02*
X314452000Y-60403002D01*
X322389500Y-105727500D02*
X322925000Y-105192000D01*
X314706000Y-81534000D02*
X314706000Y-79375000D01*
X317627000Y-76454000D02*
X317627000Y-65532000D01*
X314452000Y-60403002D02*
X317754000Y-57101002D01*
X317627000Y-65532000D02*
X314452000Y-62357000D01*
X314706000Y-79375000D02*
X317627000Y-76454000D01*
X317754000Y-57101002D02*
X317754000Y-46228000D01*
X317754000Y-46228000D02*
X313023250Y-41497250D01*
D19*
X145256250Y-112553750D02*
X145415000Y-112553750D01*
X145415000Y-112553750D02*
X147589875Y-110378875D01*
X147589875Y-110378875D02*
X147589875Y-93964125D01*
X147589875Y-93964125D02*
X150241000Y-91313000D01*
X150241000Y-91313000D02*
X150241000Y-89278000D01*
M02*
