M48
; DRILL file {KiCad (5.1.10-1-10_14)} date Wednesday, December 29, 2021 at 10:31:56 PM
; FORMAT={-:-/ absolute / metric / decimal}
; #@! TF.CreationDate,2021-12-29T22:31:56+09:00
; #@! TF.GenerationSoftware,Kicad,Pcbnew,(5.1.10-1-10_14)
; #@! TF.FileFunction,Plated,1,2,PTH
FMAT,2
METRIC
T1C0.400
T2C0.800
T3C0.813
T4C1.300
%
G90
G05
T1
X47.769Y-107.844
X73.875Y-58.794
X101.112Y-77.787
X116.825Y-33.225
X121.15Y-106.807
X135.731Y-33.337
X141.287Y-71.438
X144.667Y-41.592
X151.892Y-87.63
X159.772Y-95.816
X173.975Y-38.75
X197.644Y-35.719
X197.644Y-38.894
X207.645Y-98.679
X223.931Y-58.594
X247.794Y-77.644
X252.869Y-34.588
X268.129Y-38.894
X269.081Y-98.425
X275.498Y-37.377
X276.225Y-23.656
X285.075Y-23.65
X285.425Y-38.8
X287.525Y-20.5
X289.225Y-38.75
X291.425Y-19.075
X294.355Y-25.32
X294.7Y-18.075
X296.525Y-31.725
X299.2Y-31.725
X300.831Y-32.544
X304.475Y-29.65
X304.575Y-31.875
X306.197Y-95.885
X311.404Y-70.612
X315.912Y-38.894
X316.992Y-89.662
X320.675Y-32.544
T3
X37.306Y-29.527
X37.306Y-37.148
X40.481Y-105.727
X40.481Y-113.347
X44.45Y-48.578
X44.45Y-56.197
X47.752Y-64.135
X47.752Y-71.755
X55.562Y-86.677
X55.562Y-94.297
X56.356Y-29.527
X56.356Y-37.148
X64.294Y-105.727
X64.294Y-113.347
X65.881Y-48.578
X65.881Y-56.197
X70.644Y-67.627
X70.644Y-75.248
X75.406Y-29.527
X75.406Y-37.148
X75.406Y-86.677
X75.406Y-94.297
X84.931Y-48.578
X84.931Y-56.197
X88.106Y-105.727
X88.106Y-113.347
X89.694Y-67.627
X89.694Y-75.248
X94.456Y-29.527
X94.456Y-37.148
X94.456Y-86.677
X94.456Y-94.297
X103.981Y-48.578
X103.981Y-56.197
X108.744Y-67.627
X108.744Y-75.248
X108.744Y-105.727
X108.744Y-113.347
X113.03Y-83.82
X113.03Y-91.44
X113.506Y-29.527
X113.506Y-37.148
X123.031Y-48.578
X123.031Y-56.197
X127.794Y-67.627
X127.794Y-75.248
X131.953Y-83.82
X131.953Y-91.44
X132.556Y-29.527
X132.556Y-37.148
X142.081Y-48.578
X142.081Y-56.197
X145.256Y-104.934
X145.256Y-112.554
X146.844Y-67.627
X146.844Y-75.248
X150.241Y-83.693
X150.241Y-91.313
X151.606Y-29.527
X151.606Y-37.148
X161.131Y-48.578
X161.131Y-56.197
X165.894Y-67.627
X165.894Y-75.248
X169.926Y-83.82
X169.926Y-91.44
X170.656Y-29.527
X170.656Y-37.148
X180.181Y-48.578
X180.181Y-56.197
X183.356Y-104.934
X183.356Y-112.554
X184.944Y-67.627
X184.944Y-75.248
X189.706Y-29.527
X189.706Y-37.148
X189.706Y-86.677
X189.706Y-94.297
X199.231Y-48.578
X199.231Y-56.197
X203.994Y-67.627
X203.994Y-75.248
X203.994Y-105.727
X203.994Y-113.347
X208.756Y-29.527
X208.756Y-37.148
X208.756Y-86.677
X208.756Y-94.297
X218.281Y-48.578
X218.281Y-56.197
X223.044Y-67.627
X223.044Y-75.248
X226.219Y-105.727
X226.219Y-113.347
X227.806Y-29.527
X227.806Y-37.148
X227.806Y-86.677
X227.806Y-94.297
X237.331Y-48.578
X237.331Y-56.197
X242.094Y-67.627
X242.094Y-75.248
X246.856Y-29.527
X246.856Y-37.148
X246.856Y-86.677
X246.856Y-94.297
X246.856Y-105.727
X246.856Y-113.347
X263.525Y-48.578
X263.525Y-56.197
X265.113Y-28.921
X265.113Y-36.541
X265.906Y-67.627
X265.906Y-75.248
X265.906Y-86.677
X265.906Y-94.297
X265.906Y-105.727
X265.906Y-113.347
X268.287Y-28.734
X268.287Y-36.354
X283.369Y-31.115
X283.369Y-38.735
X284.956Y-48.578
X284.956Y-56.197
X284.956Y-67.627
X284.956Y-75.248
X284.956Y-86.677
X284.956Y-94.297
X284.956Y-105.727
X284.956Y-113.347
X286.544Y-29.527
X286.544Y-37.148
X290.163Y-20.637
X290.163Y-35.858
X292.703Y-20.637
X292.703Y-35.858
X295.243Y-20.637
X295.243Y-35.858
X297.783Y-20.637
X297.783Y-35.858
X300.323Y-20.637
X300.323Y-35.858
X302.863Y-20.637
X302.863Y-35.858
X304.006Y-48.578
X304.006Y-56.197
X304.006Y-67.627
X304.006Y-75.248
X304.006Y-86.677
X304.006Y-94.297
X304.006Y-105.727
X304.006Y-113.347
X305.403Y-20.637
X305.403Y-35.858
X307.943Y-20.637
X307.943Y-35.858
X310.483Y-20.637
X310.483Y-35.858
X313.023Y-20.637
X313.023Y-35.858
X315.563Y-20.637
X315.563Y-35.858
X318.103Y-20.637
X318.103Y-35.858
X320.643Y-20.637
X320.643Y-35.858
X322.262Y-48.578
X322.262Y-56.197
X322.262Y-67.627
X322.262Y-75.248
X322.262Y-86.677
X322.262Y-94.297
X322.262Y-105.727
X322.262Y-113.347
T4
X238.177Y-39.37
X244.677Y-39.37
T2
G00X168.95Y-19.227
M15
G01X168.95Y-19.227
M16
G05
G00X171.45Y-19.227
M15
G01X171.45Y-19.227
M16
G05
G00X173.95Y-19.227
M15
G01X173.95Y-19.227
M16
G05
T0
M30
