M48
; DRILL file {KiCad (5.1.10-1-10_14)} date Wednesday, December 29, 2021 at 10:31:56 PM
; FORMAT={-:-/ absolute / metric / decimal}
; #@! TF.CreationDate,2021-12-29T22:31:56+09:00
; #@! TF.GenerationSoftware,Kicad,Pcbnew,(5.1.10-1-10_14)
; #@! TF.FileFunction,NonPlated,1,2,NPTH
FMAT,2
METRIC
T1C0.500
T2C1.800
T3C2.200
T4C3.000
T5C3.048
T6C3.988
T7C4.000
%
G90
G05
T1
X26.192Y-115.773
X26.226Y-17.462
X26.942Y-115.773
X26.976Y-17.462
X27.692Y-115.773
X27.726Y-17.462
X28.442Y-115.773
X28.476Y-17.462
X29.192Y-115.773
X29.226Y-17.462
X29.942Y-115.773
X29.976Y-17.462
X158.487Y-115.824
X158.544Y-17.526
X159.237Y-115.824
X159.294Y-17.526
X159.987Y-115.824
X160.044Y-17.526
X160.737Y-115.824
X160.794Y-17.526
X161.487Y-115.824
X161.544Y-17.526
X162.237Y-115.824
X162.294Y-17.526
X305.935Y-115.76
X305.998Y-17.526
X306.685Y-115.76
X306.748Y-17.526
X307.435Y-115.76
X307.498Y-17.526
X308.185Y-115.76
X308.248Y-17.526
X308.935Y-115.76
X308.998Y-17.526
X309.685Y-115.76
X309.748Y-17.526
T2
X28.258Y-47.625
X30.639Y-66.675
X33.02Y-85.725
X43.18Y-85.725
X123.507Y-104.775
X133.667Y-104.775
X161.607Y-104.775
X171.767Y-104.775
X247.332Y-47.625
T3
X23.495Y-28.575
X25.876Y-104.775
X33.655Y-28.575
X36.036Y-104.775
X38.417Y-47.625
X40.799Y-66.675
X42.545Y-28.575
X49.689Y-104.775
X52.07Y-47.625
X52.705Y-28.575
X56.832Y-66.675
X59.849Y-104.775
X61.595Y-28.575
X61.595Y-85.725
X62.23Y-47.625
X66.992Y-66.675
X71.12Y-47.625
X71.755Y-28.575
X71.755Y-85.725
X73.501Y-104.775
X75.882Y-66.675
X80.645Y-28.575
X80.645Y-85.725
X81.28Y-47.625
X83.661Y-104.775
X86.042Y-66.675
X90.17Y-47.625
X90.805Y-28.575
X90.805Y-85.725
X94.932Y-66.675
X94.932Y-104.775
X99.695Y-28.575
X99.695Y-85.725
X100.33Y-47.625
X105.093Y-66.675
X105.093Y-104.775
X109.22Y-47.625
X109.855Y-28.575
X109.855Y-85.725
X113.983Y-66.675
X118.745Y-28.575
X118.745Y-85.725
X119.38Y-47.625
X124.142Y-66.675
X128.27Y-47.625
X128.905Y-28.575
X128.905Y-85.725
X133.032Y-66.675
X137.795Y-28.575
X137.795Y-85.725
X138.43Y-47.625
X143.192Y-66.675
X147.32Y-47.625
X147.955Y-28.575
X147.955Y-85.725
X152.082Y-66.675
X156.845Y-28.575
X156.845Y-85.725
X157.48Y-47.625
X162.243Y-66.675
X166.37Y-47.625
X167.005Y-28.575
X167.005Y-85.725
X171.132Y-66.675
X175.895Y-28.575
X175.895Y-85.725
X176.53Y-47.625
X181.292Y-66.675
X185.42Y-47.625
X186.055Y-28.575
X186.055Y-85.725
X190.183Y-66.675
X190.183Y-104.775
X194.945Y-28.575
X194.945Y-85.725
X195.58Y-47.625
X200.343Y-66.675
X200.343Y-104.775
X204.47Y-47.625
X205.105Y-28.575
X205.105Y-85.725
X209.232Y-66.675
X211.614Y-104.775
X213.995Y-28.575
X213.995Y-85.725
X214.63Y-47.625
X219.392Y-66.675
X221.774Y-104.775
X223.52Y-47.625
X224.155Y-28.575
X224.155Y-85.725
X228.282Y-66.675
X233.045Y-28.575
X233.045Y-85.725
X233.045Y-104.775
X233.68Y-47.625
X238.442Y-66.675
X243.205Y-28.575
X243.205Y-85.725
X243.205Y-104.775
X249.714Y-66.675
X252.095Y-28.575
X252.095Y-85.725
X252.095Y-104.775
X257.493Y-47.625
X259.874Y-66.675
X262.255Y-28.575
X262.255Y-85.725
X262.255Y-104.775
X271.145Y-28.575
X271.145Y-47.625
X271.145Y-66.675
X271.145Y-85.725
X271.145Y-104.775
X281.305Y-28.575
X281.305Y-47.625
X281.305Y-66.675
X281.305Y-85.725
X281.305Y-104.775
X290.195Y-28.575
X290.195Y-47.625
X290.195Y-66.675
X290.195Y-85.725
X290.195Y-104.775
X300.355Y-28.575
X300.355Y-47.625
X300.355Y-66.675
X300.355Y-85.725
X300.355Y-104.775
X309.245Y-28.575
X309.245Y-47.625
X309.245Y-66.675
X309.245Y-85.725
X309.245Y-104.775
X319.405Y-28.575
X319.405Y-47.625
X319.405Y-66.675
X319.405Y-85.725
X319.405Y-104.775
T4
X24.765Y-26.035
X27.146Y-102.235
X29.527Y-45.085
X31.115Y-23.495
X31.909Y-64.135
X33.496Y-99.695
X34.29Y-83.185
X35.877Y-42.545
X38.259Y-61.595
X40.64Y-80.645
X43.815Y-26.035
X50.165Y-23.495
X50.959Y-102.235
X53.34Y-45.085
X57.309Y-99.695
X58.102Y-64.135
X59.69Y-42.545
X62.865Y-26.035
X62.865Y-83.185
X64.453Y-61.595
X69.215Y-23.495
X69.215Y-80.645
X72.39Y-45.085
X74.771Y-102.235
X77.153Y-64.135
X78.74Y-42.545
X81.121Y-99.695
X81.915Y-26.035
X81.915Y-83.185
X83.502Y-61.595
X88.265Y-23.495
X88.265Y-80.645
X91.44Y-45.085
X96.203Y-64.135
X96.203Y-102.235
X97.79Y-42.545
X100.965Y-26.035
X100.965Y-83.185
X102.552Y-61.595
X102.552Y-99.695
X107.315Y-23.495
X107.315Y-80.645
X110.49Y-45.085
X115.252Y-64.135
X116.84Y-42.545
X120.015Y-26.035
X120.015Y-83.185
X121.602Y-61.595
X124.777Y-102.235
X126.365Y-23.495
X126.365Y-80.645
X129.54Y-45.085
X131.127Y-99.695
X134.302Y-64.135
X135.89Y-42.545
X139.065Y-26.035
X139.065Y-83.185
X140.653Y-61.595
X145.415Y-23.495
X145.415Y-80.645
X148.59Y-45.085
X153.352Y-64.135
X154.94Y-42.545
X158.115Y-26.035
X158.115Y-83.185
X159.702Y-61.595
X162.877Y-102.235
X164.465Y-23.495
X164.465Y-80.645
X167.64Y-45.085
X169.227Y-99.695
X172.403Y-64.135
X173.99Y-42.545
X177.165Y-26.035
X177.165Y-83.185
X178.752Y-61.595
X183.515Y-23.495
X183.515Y-80.645
X186.69Y-45.085
X191.452Y-64.135
X191.452Y-102.235
X193.04Y-42.545
X196.215Y-26.035
X196.215Y-83.185
X197.802Y-61.595
X197.802Y-99.695
X202.565Y-23.495
X202.565Y-80.645
X205.74Y-45.085
X210.502Y-64.135
X212.09Y-42.545
X212.884Y-102.235
X215.265Y-26.035
X215.265Y-83.185
X216.852Y-61.595
X219.234Y-99.695
X221.615Y-23.495
X221.615Y-80.645
X224.79Y-45.085
X229.552Y-64.135
X231.14Y-42.545
X234.315Y-26.035
X234.315Y-83.185
X234.315Y-102.235
X235.903Y-61.595
X240.665Y-23.495
X240.665Y-80.645
X240.665Y-99.695
X248.602Y-45.085
X250.984Y-64.135
X253.365Y-26.035
X253.365Y-83.185
X253.365Y-102.235
X254.952Y-42.545
X257.334Y-61.595
X259.715Y-23.495
X259.715Y-80.645
X259.715Y-99.695
X272.415Y-26.035
X272.415Y-45.085
X272.415Y-64.135
X272.415Y-83.185
X272.415Y-102.235
X278.765Y-23.495
X278.765Y-42.545
X278.765Y-61.595
X278.765Y-80.645
X278.765Y-99.695
X291.465Y-26.035
X291.465Y-45.085
X291.465Y-64.135
X291.465Y-83.185
X291.465Y-102.235
X297.815Y-23.495
X297.815Y-42.545
X297.815Y-61.595
X297.815Y-80.645
X297.815Y-99.695
X310.515Y-26.035
X310.515Y-45.085
X310.515Y-64.135
X310.515Y-83.185
X310.515Y-102.235
X316.865Y-23.495
X316.865Y-42.545
X316.865Y-61.595
X316.865Y-80.645
X316.865Y-99.695
T5
X26.162Y-92.71
X50.038Y-92.71
X116.649Y-111.76
X140.525Y-111.76
X154.749Y-111.76
X178.625Y-111.76
T6
X26.162Y-77.47
X50.038Y-77.47
X116.649Y-96.52
X140.525Y-96.52
X154.749Y-96.52
X178.625Y-96.52
T7
X28.575Y-28.575
X30.956Y-104.775
X33.337Y-47.625
X35.719Y-66.675
X38.1Y-85.725
X47.625Y-28.575
X54.769Y-104.775
X57.15Y-47.625
X61.912Y-66.675
X66.675Y-28.575
X66.675Y-85.725
X76.2Y-47.625
X78.581Y-104.775
X80.962Y-66.675
X85.725Y-28.575
X85.725Y-85.725
X95.25Y-47.625
X100.012Y-66.675
X100.012Y-104.775
X104.775Y-28.575
X104.775Y-85.725
X114.3Y-47.625
X119.062Y-66.675
X123.825Y-28.575
X123.825Y-85.725
X128.588Y-104.775
X133.35Y-47.625
X138.112Y-66.675
X142.875Y-28.575
X142.875Y-85.725
X152.4Y-47.625
X157.162Y-66.675
X161.925Y-28.575
X161.925Y-85.725
X166.688Y-104.775
X171.45Y-47.625
X176.213Y-66.675
X180.975Y-28.575
X180.975Y-85.725
X190.5Y-47.625
X195.262Y-66.675
X195.262Y-104.775
X200.025Y-28.575
X200.025Y-85.725
X209.55Y-47.625
X214.312Y-66.675
X216.694Y-104.775
X219.075Y-28.575
X219.075Y-85.725
X228.6Y-47.625
X233.362Y-66.675
X238.125Y-28.575
X238.125Y-85.725
X238.125Y-104.775
X252.412Y-47.625
X254.794Y-66.675
X257.175Y-28.575
X257.175Y-85.725
X257.175Y-104.775
X276.225Y-28.575
X276.225Y-47.625
X276.225Y-66.675
X276.225Y-85.725
X276.225Y-104.775
X295.275Y-28.575
X295.275Y-47.625
X295.275Y-66.675
X295.275Y-85.725
X295.275Y-104.775
X314.325Y-28.575
X314.325Y-47.625
X314.325Y-66.675
X314.325Y-85.725
X314.325Y-104.775
T0
M30
