G04 #@! TF.GenerationSoftware,KiCad,Pcbnew,(5.1.10-1-10_14)*
G04 #@! TF.CreationDate,2021-12-29T22:31:36+09:00*
G04 #@! TF.ProjectId,9674GL,39363734-474c-42e6-9b69-6361645f7063,rev?*
G04 #@! TF.SameCoordinates,Original*
G04 #@! TF.FileFunction,Profile,NP*
%FSLAX46Y46*%
G04 Gerber Fmt 4.6, Leading zero omitted, Abs format (unit mm)*
G04 Created by KiCad (PCBNEW (5.1.10-1-10_14)) date 2021-12-29 22:31:36*
%MOMM*%
%LPD*%
G01*
G04 APERTURE LIST*
G04 #@! TA.AperFunction,Profile*
%ADD10C,0.100000*%
G04 #@! TD*
G04 APERTURE END LIST*
D10*
X320625000Y-116050000D02*
X309981600Y-116049200D01*
X162534600Y-120345200D02*
X162534600Y-116027200D01*
X30264100Y-120345200D02*
X158216600Y-120345200D01*
X309981600Y-120345200D02*
X309981600Y-116049200D01*
X25882600Y-120345200D02*
X25882600Y-116052600D01*
X25882600Y-120345200D02*
X19278600Y-120345200D01*
X30264100Y-120345200D02*
X30264100Y-116027200D01*
X19278600Y-120345200D02*
X19278600Y-128219200D01*
X19278600Y-128219200D02*
X323570600Y-128219200D01*
X323570600Y-128219200D02*
X323570600Y-120345200D01*
X305663600Y-120345200D02*
X162534600Y-120345200D01*
X25882600Y-116052600D02*
X22275000Y-116050000D01*
X305663600Y-116027200D02*
X162534600Y-116027200D01*
X305663600Y-116027200D02*
X305663600Y-120345200D01*
X323570600Y-120345200D02*
X309981600Y-120345200D01*
X158216600Y-120345200D02*
X158216600Y-116027200D01*
X158216600Y-116027200D02*
X30264100Y-116027200D01*
X158242000Y-17272000D02*
X30289500Y-17272000D01*
X320625000Y-17250000D02*
X310007000Y-17250000D01*
X158242000Y-12954000D02*
X158242000Y-17272000D01*
X30289500Y-12954000D02*
X158242000Y-12954000D01*
X305689000Y-17272000D02*
X305689000Y-12954000D01*
X310007000Y-12954000D02*
X310007000Y-17250000D01*
X323596000Y-12954000D02*
X310007000Y-12954000D01*
X162560000Y-12954000D02*
X162560000Y-17272000D01*
X25908000Y-17246600D02*
X22275000Y-17250000D01*
X305689000Y-12954000D02*
X162560000Y-12954000D01*
X323596000Y-5080000D02*
X323596000Y-12954000D01*
X19304000Y-5080000D02*
X323596000Y-5080000D01*
X19304000Y-12954000D02*
X19304000Y-5080000D01*
X30289500Y-12954000D02*
X30289500Y-17272000D01*
X25908000Y-12954000D02*
X19304000Y-12954000D01*
X25908000Y-12954000D02*
X25908000Y-17246600D01*
X320625000Y-17250000D02*
G75*
G02*
X323625000Y-20250000I0J-3000000D01*
G01*
X323625000Y-113050000D02*
G75*
G02*
X320625000Y-116050000I-3000000J0D01*
G01*
X19275000Y-20250000D02*
G75*
G02*
X22275000Y-17250000I3000000J0D01*
G01*
X22275000Y-116050000D02*
G75*
G02*
X19275000Y-113050000I0J3000000D01*
G01*
X323625000Y-113050000D02*
X323625000Y-20250000D01*
X19275000Y-20250000D02*
X19275000Y-113050000D01*
X305689000Y-17272000D02*
X162560000Y-17272000D01*
M02*
