G04 #@! TF.GenerationSoftware,KiCad,Pcbnew,(5.1.10-1-10_14)*
G04 #@! TF.CreationDate,2021-08-07T14:46:02+09:00*
G04 #@! TF.ProjectId,GL516_Template,474c3531-365f-4546-956d-706c6174652e,rev?*
G04 #@! TF.SameCoordinates,Original*
G04 #@! TF.FileFunction,Legend,Bot*
G04 #@! TF.FilePolarity,Positive*
%FSLAX46Y46*%
G04 Gerber Fmt 4.6, Leading zero omitted, Abs format (unit mm)*
G04 Created by KiCad (PCBNEW (5.1.10-1-10_14)) date 2021-08-07 14:46:02*
%MOMM*%
%LPD*%
G01*
G04 APERTURE LIST*
%ADD10C,0.300000*%
G04 APERTURE END LIST*
D10*
X18249428Y-110213714D02*
X18249428Y-109928000D01*
X18320857Y-109785142D01*
X18392285Y-109713714D01*
X18606571Y-109570857D01*
X18892285Y-109499428D01*
X19463714Y-109499428D01*
X19606571Y-109570857D01*
X19678000Y-109642285D01*
X19749428Y-109785142D01*
X19749428Y-110070857D01*
X19678000Y-110213714D01*
X19606571Y-110285142D01*
X19463714Y-110356571D01*
X19106571Y-110356571D01*
X18963714Y-110285142D01*
X18892285Y-110213714D01*
X18820857Y-110070857D01*
X18820857Y-109785142D01*
X18892285Y-109642285D01*
X18963714Y-109570857D01*
X19106571Y-109499428D01*
X19749428Y-108213714D02*
X19749428Y-108499428D01*
X19678000Y-108642285D01*
X19606571Y-108713714D01*
X19392285Y-108856571D01*
X19106571Y-108928000D01*
X18535142Y-108928000D01*
X18392285Y-108856571D01*
X18320857Y-108785142D01*
X18249428Y-108642285D01*
X18249428Y-108356571D01*
X18320857Y-108213714D01*
X18392285Y-108142285D01*
X18535142Y-108070857D01*
X18892285Y-108070857D01*
X19035142Y-108142285D01*
X19106571Y-108213714D01*
X19178000Y-108356571D01*
X19178000Y-108642285D01*
X19106571Y-108785142D01*
X19035142Y-108856571D01*
X18892285Y-108928000D01*
X19749428Y-107570857D02*
X19749428Y-106570857D01*
X18249428Y-107213714D01*
X19249428Y-105356571D02*
X18249428Y-105356571D01*
X19820857Y-105713714D02*
X18749428Y-106070857D01*
X18749428Y-105142285D01*
X19678000Y-103785142D02*
X19749428Y-103928000D01*
X19749428Y-104142285D01*
X19678000Y-104356571D01*
X19535142Y-104499428D01*
X19392285Y-104570857D01*
X19106571Y-104642285D01*
X18892285Y-104642285D01*
X18606571Y-104570857D01*
X18463714Y-104499428D01*
X18320857Y-104356571D01*
X18249428Y-104142285D01*
X18249428Y-103999428D01*
X18320857Y-103785142D01*
X18392285Y-103713714D01*
X18892285Y-103713714D01*
X18892285Y-103999428D01*
X18249428Y-102356571D02*
X18249428Y-103070857D01*
X19749428Y-103070857D01*
X18249428Y-100070857D02*
X19035142Y-100070857D01*
X19178000Y-100142285D01*
X19249428Y-100285142D01*
X19249428Y-100570857D01*
X19178000Y-100713714D01*
X18320857Y-100070857D02*
X18249428Y-100213714D01*
X18249428Y-100570857D01*
X18320857Y-100713714D01*
X18463714Y-100785142D01*
X18606571Y-100785142D01*
X18749428Y-100713714D01*
X18820857Y-100570857D01*
X18820857Y-100213714D01*
X18892285Y-100070857D01*
X18392285Y-99356571D02*
X18320857Y-99285142D01*
X18249428Y-99356571D01*
X18320857Y-99428000D01*
X18392285Y-99356571D01*
X18249428Y-99356571D01*
X18249428Y-98642285D02*
X19749428Y-98642285D01*
X18820857Y-98499428D02*
X18249428Y-98070857D01*
X19249428Y-98070857D02*
X18678000Y-98642285D01*
X18392285Y-97428000D02*
X18320857Y-97356571D01*
X18249428Y-97428000D01*
X18320857Y-97499428D01*
X18392285Y-97428000D01*
X18249428Y-97428000D01*
X18249428Y-96070857D02*
X19035142Y-96070857D01*
X19178000Y-96142285D01*
X19249428Y-96285142D01*
X19249428Y-96570857D01*
X19178000Y-96713714D01*
X18320857Y-96070857D02*
X18249428Y-96213714D01*
X18249428Y-96570857D01*
X18320857Y-96713714D01*
X18463714Y-96785142D01*
X18606571Y-96785142D01*
X18749428Y-96713714D01*
X18820857Y-96570857D01*
X18820857Y-96213714D01*
X18892285Y-96070857D01*
X19749428Y-94285142D02*
X19463714Y-94285142D01*
X19749428Y-93713714D02*
X19463714Y-93713714D01*
X19249428Y-93213714D02*
X18249428Y-92928000D01*
X18963714Y-92642285D01*
X18249428Y-92356571D01*
X19249428Y-92070857D01*
X18249428Y-90856571D02*
X19035142Y-90856571D01*
X19178000Y-90928000D01*
X19249428Y-91070857D01*
X19249428Y-91356571D01*
X19178000Y-91499428D01*
X18320857Y-90856571D02*
X18249428Y-90999428D01*
X18249428Y-91356571D01*
X18320857Y-91499428D01*
X18463714Y-91570857D01*
X18606571Y-91570857D01*
X18749428Y-91499428D01*
X18820857Y-91356571D01*
X18820857Y-90999428D01*
X18892285Y-90856571D01*
X19249428Y-89499428D02*
X18035142Y-89499428D01*
X17892285Y-89570857D01*
X17820857Y-89642285D01*
X17749428Y-89785142D01*
X17749428Y-89999428D01*
X17820857Y-90142285D01*
X18320857Y-89499428D02*
X18249428Y-89642285D01*
X18249428Y-89928000D01*
X18320857Y-90070857D01*
X18392285Y-90142285D01*
X18535142Y-90213714D01*
X18963714Y-90213714D01*
X19106571Y-90142285D01*
X19178000Y-90070857D01*
X19249428Y-89928000D01*
X19249428Y-89642285D01*
X19178000Y-89499428D01*
X18249428Y-88142285D02*
X19035142Y-88142285D01*
X19178000Y-88213714D01*
X19249428Y-88356571D01*
X19249428Y-88642285D01*
X19178000Y-88785142D01*
X18320857Y-88142285D02*
X18249428Y-88285142D01*
X18249428Y-88642285D01*
X18320857Y-88785142D01*
X18463714Y-88856571D01*
X18606571Y-88856571D01*
X18749428Y-88785142D01*
X18820857Y-88642285D01*
X18820857Y-88285142D01*
X18892285Y-88142285D01*
X19249428Y-87642285D02*
X19249428Y-87070857D01*
X19749428Y-87428000D02*
X18463714Y-87428000D01*
X18320857Y-87356571D01*
X18249428Y-87213714D01*
X18249428Y-87070857D01*
X18249428Y-85928000D02*
X19035142Y-85928000D01*
X19178000Y-85999428D01*
X19249428Y-86142285D01*
X19249428Y-86428000D01*
X19178000Y-86570857D01*
X18320857Y-85928000D02*
X18249428Y-86070857D01*
X18249428Y-86428000D01*
X18320857Y-86570857D01*
X18463714Y-86642285D01*
X18606571Y-86642285D01*
X18749428Y-86570857D01*
X18820857Y-86428000D01*
X18820857Y-86070857D01*
X18892285Y-85928000D01*
X19249428Y-85428000D02*
X19249428Y-84856571D01*
X19749428Y-85213714D02*
X18463714Y-85213714D01*
X18320857Y-85142285D01*
X18249428Y-84999428D01*
X18249428Y-84856571D01*
X18249428Y-83713714D02*
X19035142Y-83713714D01*
X19178000Y-83785142D01*
X19249428Y-83928000D01*
X19249428Y-84213714D01*
X19178000Y-84356571D01*
X18320857Y-83713714D02*
X18249428Y-83856571D01*
X18249428Y-84213714D01*
X18320857Y-84356571D01*
X18463714Y-84428000D01*
X18606571Y-84428000D01*
X18749428Y-84356571D01*
X18820857Y-84213714D01*
X18820857Y-83856571D01*
X18892285Y-83713714D01*
X18249428Y-82999428D02*
X19249428Y-82999428D01*
X19106571Y-82999428D02*
X19178000Y-82928000D01*
X19249428Y-82785142D01*
X19249428Y-82570857D01*
X19178000Y-82428000D01*
X19035142Y-82356571D01*
X18249428Y-82356571D01*
X19035142Y-82356571D02*
X19178000Y-82285142D01*
X19249428Y-82142285D01*
X19249428Y-81928000D01*
X19178000Y-81785142D01*
X19035142Y-81713714D01*
X18249428Y-81713714D01*
X18249428Y-80999428D02*
X19249428Y-80999428D01*
X19749428Y-80999428D02*
X19678000Y-81070857D01*
X19606571Y-80999428D01*
X19678000Y-80928000D01*
X19749428Y-80999428D01*
X19606571Y-80999428D01*
X19749428Y-80356571D02*
X19463714Y-80356571D01*
X19749428Y-79785142D02*
X19463714Y-79785142D01*
X18249428Y-77999428D02*
X19249428Y-77999428D01*
X18963714Y-77999428D02*
X19106571Y-77928000D01*
X19178000Y-77856571D01*
X19249428Y-77713714D01*
X19249428Y-77570857D01*
X18320857Y-76499428D02*
X18249428Y-76642285D01*
X18249428Y-76928000D01*
X18320857Y-77070857D01*
X18463714Y-77142285D01*
X19035142Y-77142285D01*
X19178000Y-77070857D01*
X19249428Y-76928000D01*
X19249428Y-76642285D01*
X19178000Y-76499428D01*
X19035142Y-76428000D01*
X18892285Y-76428000D01*
X18749428Y-77142285D01*
X19249428Y-75928000D02*
X18249428Y-75570857D01*
X19249428Y-75213714D01*
X18392285Y-74642285D02*
X18320857Y-74570857D01*
X18249428Y-74642285D01*
X18320857Y-74713714D01*
X18392285Y-74642285D01*
X18249428Y-74642285D01*
X19749428Y-73642285D02*
X19749428Y-73499428D01*
X19678000Y-73356571D01*
X19606571Y-73285142D01*
X19463714Y-73213714D01*
X19178000Y-73142285D01*
X18820857Y-73142285D01*
X18535142Y-73213714D01*
X18392285Y-73285142D01*
X18320857Y-73356571D01*
X18249428Y-73499428D01*
X18249428Y-73642285D01*
X18320857Y-73785142D01*
X18392285Y-73856571D01*
X18535142Y-73928000D01*
X18820857Y-73999428D01*
X19178000Y-73999428D01*
X19463714Y-73928000D01*
X19606571Y-73856571D01*
X19678000Y-73785142D01*
X19749428Y-73642285D01*
X18392285Y-72499428D02*
X18320857Y-72428000D01*
X18249428Y-72499428D01*
X18320857Y-72570857D01*
X18392285Y-72499428D01*
X18249428Y-72499428D01*
X18249428Y-70999428D02*
X18249428Y-71856571D01*
X18249428Y-71428000D02*
X19749428Y-71428000D01*
X19535142Y-71570857D01*
X19392285Y-71713714D01*
X19320857Y-71856571D01*
X15699428Y-100213714D02*
X17199428Y-100213714D01*
X16628000Y-100213714D02*
X16699428Y-100070857D01*
X16699428Y-99785142D01*
X16628000Y-99642285D01*
X16556571Y-99570857D01*
X16413714Y-99499428D01*
X15985142Y-99499428D01*
X15842285Y-99570857D01*
X15770857Y-99642285D01*
X15699428Y-99785142D01*
X15699428Y-100070857D01*
X15770857Y-100213714D01*
X16699428Y-98999428D02*
X15699428Y-98642285D01*
X16699428Y-98285142D02*
X15699428Y-98642285D01*
X15342285Y-98785142D01*
X15270857Y-98856571D01*
X15199428Y-98999428D01*
X16413714Y-95642285D02*
X16485142Y-95713714D01*
X16556571Y-95856571D01*
X16556571Y-95999428D01*
X16485142Y-96142285D01*
X16413714Y-96213714D01*
X16270857Y-96285142D01*
X16128000Y-96285142D01*
X15985142Y-96213714D01*
X15913714Y-96142285D01*
X15842285Y-95999428D01*
X15842285Y-95856571D01*
X15913714Y-95713714D01*
X15985142Y-95642285D01*
X16556571Y-95642285D02*
X15985142Y-95642285D01*
X15913714Y-95570857D01*
X15913714Y-95499428D01*
X15985142Y-95356571D01*
X16128000Y-95285142D01*
X16485142Y-95285142D01*
X16699428Y-95428000D01*
X16842285Y-95642285D01*
X16913714Y-95928000D01*
X16842285Y-96213714D01*
X16699428Y-96428000D01*
X16485142Y-96570857D01*
X16199428Y-96642285D01*
X15913714Y-96570857D01*
X15699428Y-96428000D01*
X15556571Y-96213714D01*
X15485142Y-95928000D01*
X15556571Y-95642285D01*
X15699428Y-95428000D01*
X15699428Y-94428000D02*
X15770857Y-94570857D01*
X15842285Y-94642285D01*
X15985142Y-94713714D01*
X16413714Y-94713714D01*
X16556571Y-94642285D01*
X16628000Y-94570857D01*
X16699428Y-94428000D01*
X16699428Y-94213714D01*
X16628000Y-94070857D01*
X16556571Y-93999428D01*
X16413714Y-93928000D01*
X15985142Y-93928000D01*
X15842285Y-93999428D01*
X15770857Y-94070857D01*
X15699428Y-94213714D01*
X15699428Y-94428000D01*
X16699428Y-93499428D02*
X16699428Y-92928000D01*
X17199428Y-93285142D02*
X15913714Y-93285142D01*
X15770857Y-93213714D01*
X15699428Y-93070857D01*
X15699428Y-92928000D01*
X15699428Y-91785142D02*
X16485142Y-91785142D01*
X16628000Y-91856571D01*
X16699428Y-91999428D01*
X16699428Y-92285142D01*
X16628000Y-92428000D01*
X15770857Y-91785142D02*
X15699428Y-91928000D01*
X15699428Y-92285142D01*
X15770857Y-92428000D01*
X15913714Y-92499428D01*
X16056571Y-92499428D01*
X16199428Y-92428000D01*
X16270857Y-92285142D01*
X16270857Y-91928000D01*
X16342285Y-91785142D01*
X15699428Y-91070857D02*
X17199428Y-91070857D01*
X15699428Y-90428000D02*
X16485142Y-90428000D01*
X16628000Y-90499428D01*
X16699428Y-90642285D01*
X16699428Y-90856571D01*
X16628000Y-90999428D01*
X16556571Y-91070857D01*
X15699428Y-89713714D02*
X16699428Y-89713714D01*
X17199428Y-89713714D02*
X17128000Y-89785142D01*
X17056571Y-89713714D01*
X17128000Y-89642285D01*
X17199428Y-89713714D01*
X17056571Y-89713714D01*
X16699428Y-88999428D02*
X15699428Y-88999428D01*
X16556571Y-88999428D02*
X16628000Y-88928000D01*
X16699428Y-88785142D01*
X16699428Y-88570857D01*
X16628000Y-88428000D01*
X16485142Y-88356571D01*
X15699428Y-88356571D01*
X15699428Y-87428000D02*
X15770857Y-87570857D01*
X15842285Y-87642285D01*
X15985142Y-87713714D01*
X16413714Y-87713714D01*
X16556571Y-87642285D01*
X16628000Y-87570857D01*
X16699428Y-87428000D01*
X16699428Y-87213714D01*
X16628000Y-87070857D01*
X16556571Y-86999428D01*
X16413714Y-86928000D01*
X15985142Y-86928000D01*
X15842285Y-86999428D01*
X15770857Y-87070857D01*
X15699428Y-87213714D01*
X15699428Y-87428000D01*
X15770857Y-86356571D02*
X15699428Y-86213714D01*
X15699428Y-85928000D01*
X15770857Y-85785142D01*
X15913714Y-85713714D01*
X15985142Y-85713714D01*
X16128000Y-85785142D01*
X16199428Y-85928000D01*
X16199428Y-86142285D01*
X16270857Y-86285142D01*
X16413714Y-86356571D01*
X16485142Y-86356571D01*
X16628000Y-86285142D01*
X16699428Y-86142285D01*
X16699428Y-85928000D01*
X16628000Y-85785142D01*
X15699428Y-84428000D02*
X16485142Y-84428000D01*
X16628000Y-84499428D01*
X16699428Y-84642285D01*
X16699428Y-84928000D01*
X16628000Y-85070857D01*
X15770857Y-84428000D02*
X15699428Y-84570857D01*
X15699428Y-84928000D01*
X15770857Y-85070857D01*
X15913714Y-85142285D01*
X16056571Y-85142285D01*
X16199428Y-85070857D01*
X16270857Y-84928000D01*
X16270857Y-84570857D01*
X16342285Y-84428000D01*
X15699428Y-83713714D02*
X16699428Y-83713714D01*
X16556571Y-83713714D02*
X16628000Y-83642285D01*
X16699428Y-83499428D01*
X16699428Y-83285142D01*
X16628000Y-83142285D01*
X16485142Y-83070857D01*
X15699428Y-83070857D01*
X16485142Y-83070857D02*
X16628000Y-82999428D01*
X16699428Y-82856571D01*
X16699428Y-82642285D01*
X16628000Y-82499428D01*
X16485142Y-82428000D01*
X15699428Y-82428000D01*
X15770857Y-81142285D02*
X15699428Y-81285142D01*
X15699428Y-81570857D01*
X15770857Y-81713714D01*
X15913714Y-81785142D01*
X16485142Y-81785142D01*
X16628000Y-81713714D01*
X16699428Y-81570857D01*
X16699428Y-81285142D01*
X16628000Y-81142285D01*
X16485142Y-81070857D01*
X16342285Y-81070857D01*
X16199428Y-81785142D01*
M02*
