M48
; DRILL file {KiCad (5.1.10-1-10_14)} date Saturday, August 07, 2021 at 02:46:18 PM
; FORMAT={-:-/ absolute / metric / decimal}
; #@! TF.CreationDate,2021-08-07T14:46:18+09:00
; #@! TF.GenerationSoftware,Kicad,Pcbnew,(5.1.10-1-10_14)
; #@! TF.FileFunction,Plated,1,2,PTH
FMAT,2
METRIC
T1C0.300
%
G90
G05
T1
G00X21.625Y-21.625
M15
G01X21.625Y-35.525
M16
G05
G00X22.8Y-91.625
M15
G01X22.8Y-77.025
M16
G05
G00X24.006Y-97.825
M15
G01X24.006Y-111.725
M16
G05
G00X29.75Y-77.025
M15
G01X22.85Y-77.025
M16
G05
G00X29.75Y-91.625
M15
G01X22.85Y-91.625
M16
G05
G00X26.387Y-40.675
M15
G01X26.387Y-54.575
M16
G05
G00X21.625Y-21.625
M15
G01X35.525Y-21.625
M16
G05
G00X21.625Y-35.525
M15
G01X35.525Y-35.525
M16
G05
G00X28.769Y-59.725
M15
G01X28.769Y-73.625
M16
G05
G00X29.8Y-91.625
M15
G01X29.8Y-77.025
M16
G05
G00X24.006Y-97.825
M15
G01X37.906Y-97.825
M16
G05
G00X24.006Y-111.725
M15
G01X37.906Y-111.725
M16
G05
G00X31.15Y-92.675
M15
G01X31.15Y-78.775
M16
G05
G00X26.387Y-40.675
M15
G01X40.288Y-40.675
M16
G05
G00X26.387Y-54.575
M15
G01X40.288Y-54.575
M16
G05
G00X35.525Y-21.625
M15
G01X35.525Y-35.525
M16
G05
G00X28.769Y-59.725
M15
G01X42.669Y-59.725
M16
G05
G00X28.769Y-73.625
M15
G01X42.669Y-73.625
M16
G05
G00X37.906Y-97.825
M15
G01X37.906Y-111.725
M16
G05
G00X45.05Y-78.775
M15
G01X31.15Y-78.775
M16
G05
G00X45.05Y-92.675
M15
G01X31.15Y-92.675
M16
G05
G00X40.288Y-40.675
M15
G01X40.288Y-54.575
M16
G05
G00X40.675Y-21.625
M15
G01X40.675Y-35.525
M16
G05
G00X42.669Y-59.725
M15
G01X42.669Y-73.625
M16
G05
G00X45.05Y-92.675
M15
G01X45.05Y-78.775
M16
G05
G00X46.6Y-91.625
M15
G01X46.6Y-77.025
M16
G05
G00X40.675Y-21.625
M15
G01X54.575Y-21.625
M16
G05
G00X40.675Y-35.525
M15
G01X54.575Y-35.525
M16
G05
G00X47.819Y-97.825
M15
G01X47.819Y-111.725
M16
G05
G00X53.55Y-77.025
M15
G01X46.65Y-77.025
M16
G05
G00X53.55Y-91.625
M15
G01X46.65Y-91.625
M16
G05
G00X50.2Y-40.675
M15
G01X50.2Y-54.575
M16
G05
G00X53.6Y-91.625
M15
G01X53.6Y-77.025
M16
G05
G00X54.575Y-21.625
M15
G01X54.575Y-35.525
M16
G05
G00X47.819Y-97.825
M15
G01X61.719Y-97.825
M16
G05
G00X47.819Y-111.725
M15
G01X61.719Y-111.725
M16
G05
G00X54.962Y-59.725
M15
G01X54.962Y-73.625
M16
G05
G00X50.2Y-40.675
M15
G01X64.1Y-40.675
M16
G05
G00X50.2Y-54.575
M15
G01X64.1Y-54.575
M16
G05
G00X59.725Y-21.625
M15
G01X59.725Y-35.525
M16
G05
G00X59.725Y-78.775
M15
G01X59.725Y-92.675
M16
G05
G00X61.719Y-97.825
M15
G01X61.719Y-111.725
M16
G05
G00X54.962Y-59.725
M15
G01X68.862Y-59.725
M16
G05
G00X54.962Y-73.625
M15
G01X68.862Y-73.625
M16
G05
G00X64.1Y-40.675
M15
G01X64.1Y-54.575
M16
G05
G00X59.725Y-21.625
M15
G01X73.625Y-21.625
M16
G05
G00X59.725Y-35.525
M15
G01X73.625Y-35.525
M16
G05
G00X59.725Y-78.775
M15
G01X73.625Y-78.775
M16
G05
G00X59.725Y-92.675
M15
G01X73.625Y-92.675
M16
G05
G00X68.862Y-59.725
M15
G01X68.862Y-73.625
M16
G05
G00X69.25Y-40.675
M15
G01X69.25Y-54.575
M16
G05
G00X71.631Y-97.825
M15
G01X71.631Y-111.725
M16
G05
G00X73.625Y-21.625
M15
G01X73.625Y-35.525
M16
G05
G00X73.625Y-78.775
M15
G01X73.625Y-92.675
M16
G05
G00X74.013Y-59.725
M15
G01X74.013Y-73.625
M16
G05
G00X69.25Y-40.675
M15
G01X83.15Y-40.675
M16
G05
G00X69.25Y-54.575
M15
G01X83.15Y-54.575
M16
G05
G00X71.631Y-97.825
M15
G01X85.531Y-97.825
M16
G05
G00X71.631Y-111.725
M15
G01X85.531Y-111.725
M16
G05
G00X78.775Y-21.625
M15
G01X78.775Y-35.525
M16
G05
G00X78.775Y-78.775
M15
G01X78.775Y-92.675
M16
G05
G00X74.013Y-59.725
M15
G01X87.912Y-59.725
M16
G05
G00X74.013Y-73.625
M15
G01X87.912Y-73.625
M16
G05
G00X83.15Y-40.675
M15
G01X83.15Y-54.575
M16
G05
G00X85.531Y-97.825
M15
G01X85.531Y-111.725
M16
G05
G00X78.775Y-21.625
M15
G01X92.675Y-21.625
M16
G05
G00X78.775Y-35.525
M15
G01X92.675Y-35.525
M16
G05
G00X78.775Y-78.775
M15
G01X92.675Y-78.775
M16
G05
G00X78.775Y-92.675
M15
G01X92.675Y-92.675
M16
G05
G00X87.912Y-59.725
M15
G01X87.912Y-73.625
M16
G05
G00X88.3Y-40.675
M15
G01X88.3Y-54.575
M16
G05
G00X92.675Y-21.625
M15
G01X92.675Y-35.525
M16
G05
G00X92.675Y-78.775
M15
G01X92.675Y-92.675
M16
G05
G00X93.062Y-59.725
M15
G01X93.062Y-73.625
M16
G05
G00X93.062Y-97.825
M15
G01X93.062Y-111.725
M16
G05
G00X88.3Y-40.675
M15
G01X102.2Y-40.675
M16
G05
G00X88.3Y-54.575
M15
G01X102.2Y-54.575
M16
G05
G00X97.825Y-21.625
M15
G01X97.825Y-35.525
M16
G05
G00X97.825Y-78.775
M15
G01X97.825Y-92.675
M16
G05
G00X93.062Y-59.725
M15
G01X106.962Y-59.725
M16
G05
G00X93.062Y-73.625
M15
G01X106.962Y-73.625
M16
G05
G00X93.062Y-97.825
M15
G01X106.962Y-97.825
M16
G05
G00X93.062Y-111.725
M15
G01X106.962Y-111.725
M16
G05
G00X102.2Y-40.675
M15
G01X102.2Y-54.575
M16
G05
G00X97.825Y-21.625
M15
G01X111.725Y-21.625
M16
G05
G00X97.825Y-35.525
M15
G01X111.725Y-35.525
M16
G05
G00X97.825Y-78.775
M15
G01X111.725Y-78.775
M16
G05
G00X97.825Y-92.675
M15
G01X111.725Y-92.675
M16
G05
G00X106.962Y-59.725
M15
G01X106.962Y-73.625
M16
G05
G00X106.962Y-97.825
M15
G01X106.962Y-111.725
M16
G05
G00X107.35Y-40.675
M15
G01X107.35Y-54.575
M16
G05
G00X111.725Y-21.625
M15
G01X111.725Y-35.525
M16
G05
G00X111.725Y-78.775
M15
G01X111.725Y-92.675
M16
G05
G00X112.112Y-59.725
M15
G01X112.112Y-73.625
M16
G05
G00X113.287Y-110.675
M15
G01X113.287Y-96.075
M16
G05
G00X107.35Y-40.675
M15
G01X121.25Y-40.675
M16
G05
G00X107.35Y-54.575
M15
G01X121.25Y-54.575
M16
G05
G00X120.237Y-96.075
M15
G01X113.337Y-96.075
M16
G05
G00X120.237Y-110.675
M15
G01X113.337Y-110.675
M16
G05
G00X116.875Y-21.625
M15
G01X116.875Y-35.525
M16
G05
G00X116.875Y-78.775
M15
G01X116.875Y-92.675
M16
G05
G00X112.112Y-59.725
M15
G01X126.012Y-59.725
M16
G05
G00X112.112Y-73.625
M15
G01X126.012Y-73.625
M16
G05
G00X120.287Y-110.675
M15
G01X120.287Y-96.075
M16
G05
G00X121.25Y-40.675
M15
G01X121.25Y-54.575
M16
G05
G00X121.637Y-111.725
M15
G01X121.637Y-97.825
M16
G05
G00X116.875Y-21.625
M15
G01X130.775Y-21.625
M16
G05
G00X116.875Y-35.525
M15
G01X130.775Y-35.525
M16
G05
G00X116.875Y-78.775
M15
G01X130.775Y-78.775
M16
G05
G00X116.875Y-92.675
M15
G01X130.775Y-92.675
M16
G05
G00X126.012Y-59.725
M15
G01X126.012Y-73.625
M16
G05
G00X126.4Y-40.675
M15
G01X126.4Y-54.575
M16
G05
G00X135.537Y-97.825
M15
G01X121.637Y-97.825
M16
G05
G00X135.537Y-111.725
M15
G01X121.637Y-111.725
M16
G05
G00X130.775Y-21.625
M15
G01X130.775Y-35.525
M16
G05
G00X130.775Y-78.775
M15
G01X130.775Y-92.675
M16
G05
G00X131.162Y-59.725
M15
G01X131.162Y-73.625
M16
G05
G00X126.4Y-40.675
M15
G01X140.3Y-40.675
M16
G05
G00X126.4Y-54.575
M15
G01X140.3Y-54.575
M16
G05
G00X135.537Y-111.725
M15
G01X135.537Y-97.825
M16
G05
G00X135.925Y-21.625
M15
G01X135.925Y-35.525
M16
G05
G00X135.925Y-78.775
M15
G01X135.925Y-92.675
M16
G05
G00X137.088Y-110.675
M15
G01X137.088Y-96.075
M16
G05
G00X131.162Y-59.725
M15
G01X145.062Y-59.725
M16
G05
G00X131.162Y-73.625
M15
G01X145.062Y-73.625
M16
G05
G00X140.3Y-40.675
M15
G01X140.3Y-54.575
M16
G05
G00X144.037Y-96.075
M15
G01X137.137Y-96.075
M16
G05
G00X144.037Y-110.675
M15
G01X137.137Y-110.675
M16
G05
G00X135.925Y-21.625
M15
G01X149.825Y-21.625
M16
G05
G00X135.925Y-35.525
M15
G01X149.825Y-35.525
M16
G05
G00X135.925Y-78.775
M15
G01X149.825Y-78.775
M16
G05
G00X135.925Y-92.675
M15
G01X149.825Y-92.675
M16
G05
G00X144.088Y-110.675
M15
G01X144.088Y-96.075
M16
G05
G00X145.062Y-59.725
M15
G01X145.062Y-73.625
M16
G05
G00X145.45Y-40.675
M15
G01X145.45Y-54.575
M16
G05
G00X149.825Y-21.625
M15
G01X149.825Y-35.525
M16
G05
G00X149.825Y-78.775
M15
G01X149.825Y-92.675
M16
G05
G00X150.213Y-59.725
M15
G01X150.213Y-73.625
M16
G05
G00X151.387Y-110.675
M15
G01X151.387Y-96.075
M16
G05
G00X145.45Y-40.675
M15
G01X159.35Y-40.675
M16
G05
G00X145.45Y-54.575
M15
G01X159.35Y-54.575
M16
G05
G00X158.338Y-96.075
M15
G01X151.438Y-96.075
M16
G05
G00X158.338Y-110.675
M15
G01X151.438Y-110.675
M16
G05
G00X154.975Y-21.625
M15
G01X154.975Y-35.525
M16
G05
G00X154.975Y-78.775
M15
G01X154.975Y-92.675
M16
G05
G00X150.213Y-59.725
M15
G01X164.112Y-59.725
M16
G05
G00X150.213Y-73.625
M15
G01X164.112Y-73.625
M16
G05
G00X158.387Y-110.675
M15
G01X158.387Y-96.075
M16
G05
G00X159.35Y-40.675
M15
G01X159.35Y-54.575
M16
G05
G00X159.737Y-111.725
M15
G01X159.737Y-97.825
M16
G05
G00X154.975Y-21.625
M15
G01X168.875Y-21.625
M16
G05
G00X154.975Y-35.525
M15
G01X168.875Y-35.525
M16
G05
G00X154.975Y-78.775
M15
G01X168.875Y-78.775
M16
G05
G00X154.975Y-92.675
M15
G01X168.875Y-92.675
M16
G05
G00X164.112Y-59.725
M15
G01X164.112Y-73.625
M16
G05
G00X164.5Y-40.675
M15
G01X164.5Y-54.575
M16
G05
G00X173.637Y-97.825
M15
G01X159.737Y-97.825
M16
G05
G00X173.637Y-111.725
M15
G01X159.737Y-111.725
M16
G05
G00X168.875Y-21.625
M15
G01X168.875Y-35.525
M16
G05
G00X168.875Y-78.775
M15
G01X168.875Y-92.675
M16
G05
G00X169.262Y-59.725
M15
G01X169.262Y-73.625
M16
G05
G00X164.5Y-40.675
M15
G01X178.4Y-40.675
M16
G05
G00X164.5Y-54.575
M15
G01X178.4Y-54.575
M16
G05
G00X173.637Y-111.725
M15
G01X173.637Y-97.825
M16
G05
G00X174.025Y-21.625
M15
G01X174.025Y-35.525
M16
G05
G00X174.025Y-78.775
M15
G01X174.025Y-92.675
M16
G05
G00X175.188Y-110.675
M15
G01X175.188Y-96.075
M16
G05
G00X169.262Y-59.725
M15
G01X183.162Y-59.725
M16
G05
G00X169.262Y-73.625
M15
G01X183.162Y-73.625
M16
G05
G00X178.4Y-40.675
M15
G01X178.4Y-54.575
M16
G05
G00X182.137Y-96.075
M15
G01X175.237Y-96.075
M16
G05
G00X182.137Y-110.675
M15
G01X175.237Y-110.675
M16
G05
G00X174.025Y-21.625
M15
G01X187.925Y-21.625
M16
G05
G00X174.025Y-35.525
M15
G01X187.925Y-35.525
M16
G05
G00X174.025Y-78.775
M15
G01X187.925Y-78.775
M16
G05
G00X174.025Y-92.675
M15
G01X187.925Y-92.675
M16
G05
G00X182.188Y-110.675
M15
G01X182.188Y-96.075
M16
G05
G00X183.162Y-59.725
M15
G01X183.162Y-73.625
M16
G05
G00X183.55Y-40.675
M15
G01X183.55Y-54.575
M16
G05
G00X187.925Y-21.625
M15
G01X187.925Y-35.525
M16
G05
G00X187.925Y-78.775
M15
G01X187.925Y-92.675
M16
G05
G00X188.312Y-59.725
M15
G01X188.312Y-73.625
M16
G05
G00X188.312Y-97.825
M15
G01X188.312Y-111.725
M16
G05
G00X183.55Y-40.675
M15
G01X197.45Y-40.675
M16
G05
G00X183.55Y-54.575
M15
G01X197.45Y-54.575
M16
G05
G00X193.075Y-21.625
M15
G01X193.075Y-35.525
M16
G05
G00X193.075Y-78.775
M15
G01X193.075Y-92.675
M16
G05
G00X188.312Y-59.725
M15
G01X202.212Y-59.725
M16
G05
G00X188.312Y-73.625
M15
G01X202.212Y-73.625
M16
G05
G00X188.312Y-97.825
M15
G01X202.212Y-97.825
M16
G05
G00X188.312Y-111.725
M15
G01X202.212Y-111.725
M16
G05
G00X197.45Y-40.675
M15
G01X197.45Y-54.575
M16
G05
G00X193.075Y-21.625
M15
G01X206.975Y-21.625
M16
G05
G00X193.075Y-35.525
M15
G01X206.975Y-35.525
M16
G05
G00X193.075Y-78.775
M15
G01X206.975Y-78.775
M16
G05
G00X193.075Y-92.675
M15
G01X206.975Y-92.675
M16
G05
G00X202.212Y-59.725
M15
G01X202.212Y-73.625
M16
G05
G00X202.212Y-97.825
M15
G01X202.212Y-111.725
M16
G05
G00X202.6Y-40.675
M15
G01X202.6Y-54.575
M16
G05
G00X206.975Y-21.625
M15
G01X206.975Y-35.525
M16
G05
G00X206.975Y-78.775
M15
G01X206.975Y-92.675
M16
G05
G00X207.362Y-59.725
M15
G01X207.362Y-73.625
M16
G05
G00X202.6Y-40.675
M15
G01X216.5Y-40.675
M16
G05
G00X202.6Y-54.575
M15
G01X216.5Y-54.575
M16
G05
G00X209.744Y-97.825
M15
G01X209.744Y-111.725
M16
G05
G00X212.125Y-21.625
M15
G01X212.125Y-35.525
M16
G05
G00X212.125Y-78.775
M15
G01X212.125Y-92.675
M16
G05
G00X207.362Y-59.725
M15
G01X221.262Y-59.725
M16
G05
G00X207.362Y-73.625
M15
G01X221.262Y-73.625
M16
G05
G00X216.5Y-40.675
M15
G01X216.5Y-54.575
M16
G05
G00X209.744Y-97.825
M15
G01X223.644Y-97.825
M16
G05
G00X209.744Y-111.725
M15
G01X223.644Y-111.725
M16
G05
G00X212.125Y-21.625
M15
G01X226.025Y-21.625
M16
G05
G00X212.125Y-35.525
M15
G01X226.025Y-35.525
M16
G05
G00X212.125Y-78.775
M15
G01X226.025Y-78.775
M16
G05
G00X212.125Y-92.675
M15
G01X226.025Y-92.675
M16
G05
G00X221.262Y-59.725
M15
G01X221.262Y-73.625
M16
G05
G00X221.65Y-40.675
M15
G01X221.65Y-54.575
M16
G05
G00X223.644Y-97.825
M15
G01X223.644Y-111.725
M16
G05
G00X226.025Y-21.625
M15
G01X226.025Y-35.525
M16
G05
G00X226.025Y-78.775
M15
G01X226.025Y-92.675
M16
G05
G00X226.412Y-59.725
M15
G01X226.412Y-73.625
M16
G05
G00X221.65Y-40.675
M15
G01X235.55Y-40.675
M16
G05
G00X221.65Y-54.575
M15
G01X235.55Y-54.575
M16
G05
G00X231.175Y-21.625
M15
G01X231.175Y-35.525
M16
G05
G00X231.175Y-78.775
M15
G01X231.175Y-92.675
M16
G05
G00X231.175Y-97.825
M15
G01X231.175Y-111.725
M16
G05
G00X226.412Y-59.725
M15
G01X240.312Y-59.725
M16
G05
G00X226.412Y-73.625
M15
G01X240.312Y-73.625
M16
G05
G00X235.55Y-40.675
M15
G01X235.55Y-54.575
M16
G05
G00X231.175Y-21.625
M15
G01X245.075Y-21.625
M16
G05
G00X231.175Y-35.525
M15
G01X245.075Y-35.525
M16
G05
G00X231.175Y-78.775
M15
G01X245.075Y-78.775
M16
G05
G00X231.175Y-92.675
M15
G01X245.075Y-92.675
M16
G05
G00X231.175Y-97.825
M15
G01X245.075Y-97.825
M16
G05
G00X231.175Y-111.725
M15
G01X245.075Y-111.725
M16
G05
G00X240.312Y-59.725
M15
G01X240.312Y-73.625
M16
G05
G00X245.075Y-21.625
M15
G01X245.075Y-35.525
M16
G05
G00X245.075Y-78.775
M15
G01X245.075Y-92.675
M16
G05
G00X245.075Y-97.825
M15
G01X245.075Y-111.725
M16
G05
G00X245.462Y-40.675
M15
G01X245.462Y-54.575
M16
G05
G00X247.844Y-59.725
M15
G01X247.844Y-73.625
M16
G05
G00X250.225Y-21.625
M15
G01X250.225Y-35.525
M16
G05
G00X250.225Y-78.775
M15
G01X250.225Y-92.675
M16
G05
G00X250.225Y-97.825
M15
G01X250.225Y-111.725
M16
G05
G00X245.462Y-40.675
M15
G01X259.363Y-40.675
M16
G05
G00X245.462Y-54.575
M15
G01X259.363Y-54.575
M16
G05
G00X247.844Y-59.725
M15
G01X261.744Y-59.725
M16
G05
G00X247.844Y-73.625
M15
G01X261.744Y-73.625
M16
G05
G00X250.225Y-21.625
M15
G01X264.125Y-21.625
M16
G05
G00X250.225Y-35.525
M15
G01X264.125Y-35.525
M16
G05
G00X250.225Y-78.775
M15
G01X264.125Y-78.775
M16
G05
G00X250.225Y-92.675
M15
G01X264.125Y-92.675
M16
G05
G00X250.225Y-97.825
M15
G01X264.125Y-97.825
M16
G05
G00X250.225Y-111.725
M15
G01X264.125Y-111.725
M16
G05
G00X259.363Y-40.675
M15
G01X259.363Y-54.575
M16
G05
G00X261.744Y-59.725
M15
G01X261.744Y-73.625
M16
G05
G00X264.125Y-21.625
M15
G01X264.125Y-35.525
M16
G05
G00X264.125Y-78.775
M15
G01X264.125Y-92.675
M16
G05
G00X264.125Y-97.825
M15
G01X264.125Y-111.725
M16
G05
G00X269.275Y-21.625
M15
G01X269.275Y-35.525
M16
G05
G00X269.275Y-40.675
M15
G01X269.275Y-54.575
M16
G05
G00X269.275Y-59.725
M15
G01X269.275Y-73.625
M16
G05
G00X269.275Y-78.775
M15
G01X269.275Y-92.675
M16
G05
G00X269.275Y-97.825
M15
G01X269.275Y-111.725
M16
G05
G00X269.275Y-21.625
M15
G01X283.175Y-21.625
M16
G05
G00X269.275Y-35.525
M15
G01X283.175Y-35.525
M16
G05
G00X269.275Y-40.675
M15
G01X283.175Y-40.675
M16
G05
G00X269.275Y-54.575
M15
G01X283.175Y-54.575
M16
G05
G00X269.275Y-59.725
M15
G01X283.175Y-59.725
M16
G05
G00X269.275Y-73.625
M15
G01X283.175Y-73.625
M16
G05
G00X269.275Y-78.775
M15
G01X283.175Y-78.775
M16
G05
G00X269.275Y-92.675
M15
G01X283.175Y-92.675
M16
G05
G00X269.275Y-97.825
M15
G01X283.175Y-97.825
M16
G05
G00X269.275Y-111.725
M15
G01X283.175Y-111.725
M16
G05
G00X283.175Y-21.625
M15
G01X283.175Y-35.525
M16
G05
G00X283.175Y-40.675
M15
G01X283.175Y-54.575
M16
G05
G00X283.175Y-59.725
M15
G01X283.175Y-73.625
M16
G05
G00X283.175Y-78.775
M15
G01X283.175Y-92.675
M16
G05
G00X283.175Y-97.825
M15
G01X283.175Y-111.725
M16
G05
G00X288.325Y-21.625
M15
G01X288.325Y-35.525
M16
G05
G00X288.325Y-40.675
M15
G01X288.325Y-54.575
M16
G05
G00X288.325Y-59.725
M15
G01X288.325Y-73.625
M16
G05
G00X288.325Y-78.775
M15
G01X288.325Y-92.675
M16
G05
G00X288.325Y-97.825
M15
G01X288.325Y-111.725
M16
G05
G00X288.325Y-21.625
M15
G01X302.225Y-21.625
M16
G05
G00X288.325Y-35.525
M15
G01X302.225Y-35.525
M16
G05
G00X288.325Y-40.675
M15
G01X302.225Y-40.675
M16
G05
G00X288.325Y-54.575
M15
G01X302.225Y-54.575
M16
G05
G00X288.325Y-59.725
M15
G01X302.225Y-59.725
M16
G05
G00X288.325Y-73.625
M15
G01X302.225Y-73.625
M16
G05
G00X288.325Y-78.775
M15
G01X302.225Y-78.775
M16
G05
G00X288.325Y-92.675
M15
G01X302.225Y-92.675
M16
G05
G00X288.325Y-97.825
M15
G01X302.225Y-97.825
M16
G05
G00X288.325Y-111.725
M15
G01X302.225Y-111.725
M16
G05
G00X302.225Y-21.625
M15
G01X302.225Y-35.525
M16
G05
G00X302.225Y-40.675
M15
G01X302.225Y-54.575
M16
G05
G00X302.225Y-59.725
M15
G01X302.225Y-73.625
M16
G05
G00X302.225Y-78.775
M15
G01X302.225Y-92.675
M16
G05
G00X302.225Y-97.825
M15
G01X302.225Y-111.725
M16
G05
G00X307.375Y-21.625
M15
G01X307.375Y-35.525
M16
G05
G00X307.375Y-40.675
M15
G01X307.375Y-54.575
M16
G05
G00X307.375Y-59.725
M15
G01X307.375Y-73.625
M16
G05
G00X307.375Y-78.775
M15
G01X307.375Y-92.675
M16
G05
G00X307.375Y-97.825
M15
G01X307.375Y-111.725
M16
G05
G00X307.375Y-21.625
M15
G01X321.275Y-21.625
M16
G05
G00X307.375Y-35.525
M15
G01X321.275Y-35.525
M16
G05
G00X307.375Y-40.675
M15
G01X321.275Y-40.675
M16
G05
G00X307.375Y-54.575
M15
G01X321.275Y-54.575
M16
G05
G00X307.375Y-59.725
M15
G01X321.275Y-59.725
M16
G05
G00X307.375Y-73.625
M15
G01X321.275Y-73.625
M16
G05
G00X307.375Y-78.775
M15
G01X321.275Y-78.775
M16
G05
G00X307.375Y-92.675
M15
G01X321.275Y-92.675
M16
G05
G00X307.375Y-97.825
M15
G01X321.275Y-97.825
M16
G05
G00X307.375Y-111.725
M15
G01X321.275Y-111.725
M16
G05
G00X321.275Y-21.625
M15
G01X321.275Y-35.525
M16
G05
G00X321.275Y-40.675
M15
G01X321.275Y-54.575
M16
G05
G00X321.275Y-59.725
M15
G01X321.275Y-73.625
M16
G05
G00X321.275Y-78.775
M15
G01X321.275Y-92.675
M16
G05
G00X321.275Y-97.825
M15
G01X321.275Y-111.725
M16
G05
T0
M30
